<?xml version="1.0" encoding="utf-8"?>
<!-- Generator: Adobe Illustrator 23.0.1, SVG Export Plug-In . SVG Version: 6.00 Build 0)  -->
<!DOCTYPE svg PUBLIC "-//W3C//DTD SVG 1.1//EN" "http://www.w3.org/Graphics/SVG/1.1/DTD/svg11.dtd" [
	<!ENTITY ns_extend "http://ns.adobe.com/Extensibility/1.0/">
	<!ENTITY ns_ai "http://ns.adobe.com/AdobeIllustrator/10.0/">
	<!ENTITY ns_graphs "http://ns.adobe.com/Graphs/1.0/">
	<!ENTITY ns_vars "http://ns.adobe.com/Variables/1.0/">
	<!ENTITY ns_imrep "http://ns.adobe.com/ImageReplacement/1.0/">
	<!ENTITY ns_sfw "http://ns.adobe.com/SaveForWeb/1.0/">
	<!ENTITY ns_custom "http://ns.adobe.com/GenericCustomNamespace/1.0/">
	<!ENTITY ns_adobe_xpath "http://ns.adobe.com/XPath/1.0/">
]>
<svg version="1.1" id="Layer_1" xmlns:x="&ns_extend;" xmlns:i="&ns_ai;" xmlns:graph="&ns_graphs;"
	 xmlns="http://www.w3.org/2000/svg" xmlns:xlink="http://www.w3.org/1999/xlink" x="0px" y="0px" viewBox="0 0 202 114"
	 style="enable-background:new 0 0 202 114;" xml:space="preserve">
<style type="text/css">
	.st0{fill:#5D91B9;}
	.st1{fill:#BE694E;}
	.st2{fill:#AC583E;}
	.st3{fill:#4980AC;}
	.st4{fill:#FFCDBE;}
	.st5{fill:#EBAE9D;}
	.st6{fill:#766D78;}
	.st7{fill:#62A4FB;}
	.st8{fill:#80B6FC;}
	.st9{fill:#DDEBFD;}
	.st10{fill:#BED9FD;}
</style>
<metadata>
	<sfw  xmlns="&ns_sfw;">
		<slices></slices>
		<sliceSourceBounds  bottomLeftOrigin="true" height="114" width="73.1" x="65" y="0"></sliceSourceBounds>
	</sfw>
</metadata>
<title>illustration 4</title>
<g>
	<path class="st0" d="M135.6,78.6l-7.3-6.6c-1.4-1.3-3.3-2-5.2-2H83.8c-1.9,0-3.7,0.7-5.2,2l-7.3,6.6c-1.6,1.5-2.6,3.6-2.6,5.8v19.4
		c0,4.4,3.6,8,8,8l27.8,2.2h22.7l2.7-10.4c0.3,0,0.5-0.2,0.5-0.5l7.8-5.1V84.4C138.2,82.2,137.2,80.1,135.6,78.6L135.6,78.6z"/>
	<path class="st1" d="M130,34.7v10.6l-53.1-1.5V24.5h30.3L130,34.7z"/>
	<path class="st2" d="M124.6,45.1l5.4,0.2V24.5h-5.4V45.1z"/>
	<path class="st3" d="M135.6,78.6l-7.3-6.6c-1.4-1.3-3.3-2-5.2-2h-7.2c1.9,0,3.7,0.7,5.2,2l7.3,6.6c1.6,1.5,2.6,3.6,2.6,5.8v26.8
		c0,0.3-0.2,0.5-0.5,0.5h5c0.3,0,0.5-0.2,0.5-0.5l2.2-13.3V84.4C138.2,82.2,137.2,80.1,135.6,78.6z"/>
	<path class="st4" d="M125.5,97.9V114h12.2c0.3,0,0.5-0.2,0.5-0.5V97.9H125.5z"/>
	<path class="st5" d="M130.9,97.9v15.6c0,0.3-0.2,0.5-0.5,0.5h7.2c0.3,0,0.5-0.2,0.5-0.4c0,0,0-0.1,0-0.1V97.9L130.9,97.9
		L130.9,97.9z"/>
	<g>
		<path class="st3" d="M83.1,112.9v-22c0-1-0.8-1.7-1.7-1.7c-1,0-1.7,0.8-1.7,1.7v22H83.1z"/>
		<path class="st3" d="M127.2,114V90.9c0-1-0.8-1.7-1.7-1.7c-1,0-1.7,0.8-1.7,1.7V114H127.2z"/>
	</g>
	<path class="st5" d="M96.2,53.4v16.9c0,4,3.2,7.2,7.2,7.2c4,0,7.2-3.2,7.2-7.2V53.4L96.2,53.4z"/>
	<path class="st4" d="M127.1,52.1H79.7c-2.8,0-5.1-2.3-5.1-5.1c0-2.8,2.3-5.1,5.1-5.1h47.4c2.8,0,5.1,2.3,5.1,5.1
		C132.2,49.8,129.9,52.1,127.1,52.1z"/>
	<path class="st4" d="M121.6,31.4v21.9c0,5.1-4.1,9.3-9.3,9.3H94.5c-5.1,0-9.3-4.1-9.3-9.3V34.1c0-0.9,0.6-1.8,1.4-2.1
		c3.7-1.4,7.3-3.5,10.2-6.1c0.7-0.6,1.7-0.8,2.6-0.4c6.3,3,13.3,4.4,20.2,4.1C120.7,29.6,121.6,30.4,121.6,31.4L121.6,31.4z"/>
	<path class="st5" d="M119.7,29.6c-6.9,0.3-13.9-1.1-20.2-4.1c-0.9-0.4-1.9-0.3-2.6,0.4c-0.1,0.1-0.1,0.1-0.2,0.2
		c6,2.6,12.5,3.8,19.1,3.6c1,0,1.8,0.8,1.8,1.8v21.9c0,5.1-4.1,9.3-9.3,9.3h3.9c5.1,0,9.3-4.1,9.3-9.3V31.4
		C121.6,30.4,120.7,29.6,119.7,29.6L119.7,29.6z"/>
	<g>
		<path class="st6" d="M93.9,44.2c-0.9,0-1.9-0.2-2.8-0.5c-0.9-0.3-1.3-1.3-1-2.2c0.3-0.9,1.3-1.3,2.2-1c1.1,0.4,2.1,0.4,3.2,0
			c0.9-0.3,1.9,0.1,2.2,1c0.3,0.9-0.1,1.9-1,2.2C95.8,44,94.8,44.2,93.9,44.2L93.9,44.2z"/>
		<path class="st6" d="M113,44.2c-0.9,0-1.9-0.2-2.8-0.5c-0.9-0.3-1.3-1.3-1-2.2c0.3-0.9,1.3-1.3,2.2-1c1.1,0.4,2.1,0.4,3.2,0
			c0.9-0.3,1.9,0.1,2.2,1c0.3,0.9-0.1,1.9-1,2.2C114.9,44,113.9,44.2,113,44.2L113,44.2z"/>
	</g>
	<path class="st4" d="M109.2,105.6v4.1c0,2.4-1.9,4.3-4.3,4.3h-8.2l-18.1-2.2v-10.5h26.3C107.3,101.3,109.2,103.2,109.2,105.6
		L109.2,105.6z"/>
	<path class="st7" d="M94.8,97.2c-0.8,0-1.5-0.6-1.7-1.4l-4.8-25.5c-0.2-0.9,0.4-1.8,1.4-2c0.9-0.2,1.8,0.4,2,1.4l4.8,25.5
		c0.2,0.9-0.4,1.8-1.4,2C95,97.2,94.9,97.2,94.8,97.2L94.8,97.2z"/>
	<path class="st8" d="M66.3,95.5h31.5c0.7,0,1.2,0.6,1.2,1.2v15c0,1.3-1,2.3-2.3,2.3H73.6c-4.7,0-8.5-3.8-8.5-8.5v-8.7
		C65,96.1,65.6,95.5,66.3,95.5L66.3,95.5z"/>
	<path class="st7" d="M96.7,108.9H73.6c-4.7,0-8.5-3.8-8.5-8.5v5.1c0,4.7,3.8,8.5,8.5,8.5h23.2c1.3,0,2.3-1,2.3-2.3v-5.1
		C99,107.9,98,108.9,96.7,108.9z"/>
	<path class="st9" d="M99.3,0h8.3C119.9,0,130,10,130,22.4v13l-53.1-9.6v-3.4C76.9,10,86.9,0,99.3,0z"/>
	<g>
		<path class="st10" d="M107.6,0h-5.4c12.4,0,22.4,10,22.4,22.4v12l5.4,1v-13C130,10,119.9,0,107.6,0z"/>
		<path class="st10" d="M126.6,10.5l-31.1,5.6c-0.9,0.2-1.6,1.1-1.4,2c0.2,0.8,0.9,1.4,1.7,1.4c0.1,0,0.2,0,0.3,0l32.2-5.8
			C127.8,12.6,127.2,11.5,126.6,10.5z"/>
		<path class="st10" d="M82.6,7.5c-1.1,1.2-2.1,2.6-2.9,4l40.8-7.4c-1.5-1.1-3.1-1.9-4.9-2.6L82.6,7.5z"/>
		<path class="st10" d="M77.7,16.3l52.3,9.5c0,0,0-3.5,0-3.5L78.9,13C78.4,14.1,78,15.2,77.7,16.3L77.7,16.3z"/>
	</g>
</g>
</svg>
