<?xml version="1.0" encoding="utf-8"?>
<!-- Generator: Adobe Illustrator 23.0.1, SVG Export Plug-In . SVG Version: 6.00 Build 0)  -->
<!DOCTYPE svg PUBLIC "-//W3C//DTD SVG 1.1//EN" "http://www.w3.org/Graphics/SVG/1.1/DTD/svg11.dtd" [
	<!ENTITY ns_extend "http://ns.adobe.com/Extensibility/1.0/">
	<!ENTITY ns_ai "http://ns.adobe.com/AdobeIllustrator/10.0/">
	<!ENTITY ns_graphs "http://ns.adobe.com/Graphs/1.0/">
	<!ENTITY ns_vars "http://ns.adobe.com/Variables/1.0/">
	<!ENTITY ns_imrep "http://ns.adobe.com/ImageReplacement/1.0/">
	<!ENTITY ns_sfw "http://ns.adobe.com/SaveForWeb/1.0/">
	<!ENTITY ns_custom "http://ns.adobe.com/GenericCustomNamespace/1.0/">
	<!ENTITY ns_adobe_xpath "http://ns.adobe.com/XPath/1.0/">
]>
<svg version="1.1" id="Layer_1" xmlns:x="&ns_extend;" xmlns:i="&ns_ai;" xmlns:graph="&ns_graphs;"
	 xmlns="http://www.w3.org/2000/svg" xmlns:xlink="http://www.w3.org/1999/xlink" x="0px" y="0px" viewBox="0 0 161 154"
	 style="enable-background:new 0 0 161 154;" xml:space="preserve">
<style type="text/css">
	.st0{fill:#DADCDE;}
	.st1{fill:#E9EEF2;}
	.st2{fill:#3397E8;}
	.st3{fill:#D0D2D4;}
	.st4{fill:#E1E3E6;}
	.st5{fill:#7E8589;}
	.st6{fill:#6A7073;}
	.st7{fill:#6ED2F0;}
</style>
<metadata>
	<sfw  xmlns="&ns_sfw;">
		<slices></slices>
		<sliceSourceBounds  bottomLeftOrigin="true" height="154" width="161" x="0" y="0"></sliceSourceBounds>
	</sfw>
</metadata>
<title>image2</title>
<g>
	<path class="st0" d="M8.1,95h144.9c3,0,5.4,2.3,5.4,5.1v15.4l0,0H8.1l0,0V95L8.1,95z"/>
	<g>
		<path class="st1" d="M32.2,12.8L32.2,12.8c4.4,0,8,3.4,8,7.7v10.3c0,4.3-3.6,7.7-8,7.7l0,0c-4.4,0-8.1-3.4-8.1-7.7V20.5
			C24.1,16.3,27.8,12.8,32.2,12.8z"/>
		<path class="st1" d="M2.7,48.8h10.7v61.6H2.7V48.8z"/>
		<path class="st1" d="M2.7,110.4h155.6v10.3H2.7V110.4z"/>
	</g>
	<path class="st2" d="M24.1,74.4h10.7c5.9,0,10.7,4.6,10.7,10.3l0,0c0,5.7-4.8,10.3-10.7,10.3H24.1c-5.9,0-10.7-4.6-10.7-10.3l0,0
		C13.4,79,18.2,74.4,24.1,74.4z"/>
	<path class="st2" d="M80.5,87.3h67.1c5.9,0,10.7,4.6,10.7,10.3v12.8l0,0H80.5l0,0V87.3L80.5,87.3z"/>
	<path class="st3" d="M80.5,110.4H69.8V87.3c0-2.8,2.4-5.1,5.4-5.1c3,0,5.4,2.3,5.4,5.1V110.4z"/>
	<path class="st4" d="M13.4,120.6h10.7v23.1H13.4V120.6z"/>
	<path class="st4" d="M136.9,120.6h10.7v23.1h-10.7V120.6z"/>
	<ellipse class="st5" cx="18.8" cy="143.7" rx="8.1" ry="7.7"/>
	<path class="st6" d="M18.8,154c-5.9,0-10.7-4.6-10.7-10.3s4.8-10.3,10.7-10.3s10.7,4.6,10.7,10.3C29.5,149.4,24.7,154,18.8,154z
		 M18.8,138.6c-3,0-5.4,2.3-5.4,5.1c0,2.8,2.4,5.1,5.4,5.1s5.4-2.3,5.4-5.1C24.1,140.9,21.7,138.6,18.8,138.6z"/>
	<ellipse class="st5" cx="142.2" cy="143.7" rx="8.1" ry="7.7"/>
	<path class="st6" d="M142.2,154c-5.9,0-10.7-4.6-10.7-10.3s4.8-10.3,10.7-10.3c5.9,0,10.7,4.6,10.7,10.3
		C152.9,149.4,148.1,154,142.2,154z M142.2,138.6c-3,0-5.4,2.3-5.4,5.1c0,2.8,2.4,5.1,5.4,5.1c3,0,5.4-2.3,5.4-5.1
		C147.6,140.9,145.2,138.6,142.2,138.6z"/>
	<path class="st7" d="M123.4,25.7L88.6,46.2c0,41.1,34.8,51.3,34.8,51.3s34.9-10.3,34.9-51.3C158.3,46.1,123.4,25.7,123.4,25.7z"/>
	<path class="st1" d="M123.4,86.4c-3.9-1.9-7.6-4.3-10.8-7.2c-7.6-7-12-16.2-13.1-27.4l23.9-14.1c8.5,5,18.1,10.6,23.9,14
		c-1.1,11.2-5.5,20.4-13.1,27.4C131,82.1,127.3,84.5,123.4,86.4L123.4,86.4z"/>
	<path d="M147.6,84.7h-0.4c7-7.9,13.8-20.2,13.8-38.5c0-0.9-0.5-1.7-1.3-2.2l-34.9-20.5c-0.9-0.5-2-0.5-2.8,0L87.1,44
		c-0.8,0.5-1.3,1.3-1.3,2.2c0,18.3,6.8,30.6,13.8,38.5h-17c-1.5-4-6.1-6.1-10.3-4.7c-3.2,1.1-5.4,4-5.4,7.3v5.1H45.6
		c4.4-5.7,3.3-13.7-2.7-18c-2.3-1.7-5.2-2.6-8.1-2.6H24.1c-2.9,0-5.7,0.9-8,2.6V5.1h13.4v5.5c-4.7,1.2-8,5.3-8,9.9v10.3
		c0,5.7,4.8,10.3,10.7,10.3s10.7-4.6,10.7-10.3V20.5c0-4.7-3.3-8.8-8-9.9v-8c0-1.4-1.2-2.6-2.7-2.6H13.4c-1.5,0-2.7,1.1-2.7,2.6
		v43.6H2.7c-1.5,0-2.7,1.1-2.7,2.6v71.9c0,1.4,1.2,2.6,2.7,2.6h8.1v13.8c-3.9,4.3-3.5,10.7,1,14.5c4.4,3.7,11.2,3.3,15.1-0.9
		c1.6-1.7,2.5-3.9,2.7-6.2l51-9.5l51,9.5c0.3,5.7,5.4,10,11.3,9.6c5.9-0.3,10.4-5.2,10.1-10.9c-0.1-2.3-1.1-4.5-2.7-6.2v-13.8h8.1
		c1.5,0,2.7-1.1,2.7-2.6V97.5C161,90.4,155,84.7,147.6,84.7L147.6,84.7z M37.6,20.5v10.3c0,2.8-2.4,5.1-5.4,5.1s-5.4-2.3-5.4-5.1
		V20.5c0-2.8,2.4-5.1,5.4-5.1S37.6,17.7,37.6,20.5z M91.2,47.6l32.2-18.9l32.2,18.9c-0.3,15.5-5.8,28.2-16.4,37.6
		c-4.6,4.1-10,7.4-15.8,9.6c-5.8-2.2-11.1-5.4-15.6-9.4C97.1,75.9,91.6,63.2,91.2,47.6L91.2,47.6z M72.4,87.3c0-1.4,1.2-2.6,2.7-2.6
		s2.7,1.1,2.7,2.6v20.5h-5.4V87.3z M24.1,77h10.7c4.4,0,8,3.4,8,7.7s-3.6,7.7-8,7.7H24.1c-4.4,0-8-3.4-8-7.7S19.7,77,24.1,77z
		 M16.1,97.5h51v10.3h-51V97.5z M5.4,51.3h5.4v56.5H5.4V51.3z M18.8,148.9c-3,0-5.4-2.3-5.4-5.1c0-2.8,2.4-5.1,5.4-5.1
		s5.4,2.3,5.4,5.1C24.1,146.6,21.7,148.9,18.8,148.9z M16.1,133.8v-10.6h5.4v10.6C19.7,133.3,17.9,133.3,16.1,133.8z M28.5,139.3
		c-0.4-0.9-1-1.6-1.6-2.4v-12.2l39.7,7.4L28.5,139.3z M80.5,129.6l-34-6.4h68L80.5,129.6z M134.2,136.9c-0.7,0.7-1.2,1.5-1.6,2.4
		l-38.1-7.1l39.7-7.4V136.9z M142.2,148.9c-3,0-5.4-2.3-5.4-5.1c0-2.8,2.4-5.1,5.4-5.1c3,0,5.4,2.3,5.4,5.1
		C147.6,146.6,145.2,148.9,142.2,148.9z M139.5,133.8v-10.6h5.4v10.6C143.1,133.3,141.3,133.3,139.5,133.8z M155.6,118.1H5.4v-5.1
		h150.3V118.1z M155.6,107.8H83.2v-18h21.8c8.8,7.5,17.3,10,17.6,10.1c0.3,0.1,0.5,0.1,0.8,0.1h0.1c0.3,0,0.5,0,0.8-0.1
		c0.4-0.1,8.9-2.7,17.6-10.1h5.7c4.4,0,8,3.4,8.1,7.7V107.8z"/>
	<path d="M110.8,81c3.4,3.1,7.2,5.7,11.4,7.7c0.7,0.4,1.6,0.4,2.4,0c4.2-2,8.1-4.6,11.5-7.7c8.1-7.4,12.8-17.2,13.9-29
		c0.1-1-0.4-1.9-1.3-2.4c-5.8-3.4-15.4-9.1-23.9-14c-0.9-0.5-1.9-0.5-2.8,0L98.1,49.6c-0.9,0.5-1.4,1.4-1.3,2.4
		C98,63.8,102.7,73.6,110.8,81L110.8,81z M123.4,40.7c7.4,4.4,15.5,9.1,21,12.4c-1.3,9.8-5.3,18-12.1,24.2c-2.7,2.4-5.7,4.5-8.9,6.2
		c-3.2-1.7-6.2-3.8-8.9-6.2c-6.8-6.2-10.8-14.4-12.1-24.2L123.4,40.7z"/>
	<path d="M120.8,71.9c0.7,0,1.4-0.3,1.9-0.8l13.4-12.8c1-1,1-2.6,0-3.6c-1-1-2.7-1-3.8,0l-11.5,11l-3.5-3.3c-1-1-2.7-1-3.8,0
		c-1,1-1,2.6,0,3.6l5.4,5.1C119.4,71.6,120,71.9,120.8,71.9L120.8,71.9z"/>
</g>
</svg>
