<?xml version="1.0" encoding="utf-8"?>
<!-- Generator: Adobe Illustrator 23.0.1, SVG Export Plug-In . SVG Version: 6.00 Build 0)  -->
<!DOCTYPE svg PUBLIC "-//W3C//DTD SVG 1.1//EN" "http://www.w3.org/Graphics/SVG/1.1/DTD/svg11.dtd" [
	<!ENTITY ns_extend "http://ns.adobe.com/Extensibility/1.0/">
	<!ENTITY ns_ai "http://ns.adobe.com/AdobeIllustrator/10.0/">
	<!ENTITY ns_graphs "http://ns.adobe.com/Graphs/1.0/">
	<!ENTITY ns_vars "http://ns.adobe.com/Variables/1.0/">
	<!ENTITY ns_imrep "http://ns.adobe.com/ImageReplacement/1.0/">
	<!ENTITY ns_sfw "http://ns.adobe.com/SaveForWeb/1.0/">
	<!ENTITY ns_custom "http://ns.adobe.com/GenericCustomNamespace/1.0/">
	<!ENTITY ns_adobe_xpath "http://ns.adobe.com/XPath/1.0/">
]>
<svg version="1.1" id="Layer_1" xmlns:x="&ns_extend;" xmlns:i="&ns_ai;" xmlns:graph="&ns_graphs;"
	 xmlns="http://www.w3.org/2000/svg" xmlns:xlink="http://www.w3.org/1999/xlink" x="0px" y="0px" viewBox="0 0 177 115"
	 style="enable-background:new 0 0 177 115;" xml:space="preserve">
<style type="text/css">
	.st0{fill:#F6F1F1;}
	.st1{fill:#EADFDA;}
	.st2{fill:#DA4A54;}
	.st3{fill:#D82E3D;}
	.st4{fill:#B1E4F9;}
	.st5{fill:#75CEF9;}
	.st6{fill:#544F57;}
	.st7{fill:#454045;}
	.st8{fill:#F6E266;}
</style>
<metadata>
	<sfw  xmlns="&ns_sfw;">
		<slices></slices>
		<sliceSourceBounds  bottomLeftOrigin="true" height="115" width="177" x="0" y="0"></sliceSourceBounds>
	</sfw>
</metadata>
<title>illustration 3</title>
<g>
	<path class="st0" d="M171.3,66.9l-12.7-7.6c-1.4-0.8-2.7-1.9-3.7-3.1h-8.1l-36.2-35.4v-6.6H8.1c-3.1,0-5.5,2.6-5.5,5.9v50.6l4.8,11
		h161.4l5.4-11C173.7,69.1,172.7,67.7,171.3,66.9z"/>
	<path class="st1" d="M171.3,66.9l-12.7-7.6c-1.4-0.8-2.7-1.9-3.7-3.1h-8.1l-0.6-0.6c0.2,0.2,0.3,0.4,0.5,0.6
		c1.1,1.2,2.3,2.3,3.7,3.1l12.7,7.6c1.4,0.8,2.3,2.1,2.8,3.7c0.2,0.6,0.3,1.2,0.3,1.9v9.1h2.5l5.4-11
		C173.7,69.1,172.7,67.7,171.3,66.9L171.3,66.9z"/>
	<path class="st2" d="M174.4,72.5v15.2c0,3.5-2.7,6.4-6,6.4H8.1c-3.1,0-5.5-2.6-5.5-5.9V70.6h171.5
		C174.3,71.2,174.4,71.8,174.4,72.5z"/>
	<path class="st3" d="M174.1,70.6h-8.2c0.2,0.6,0.3,1.2,0.3,1.9v15.2c0,3.5-2.7,6.4-6,6.4h8.2c3.3,0,6-2.9,6-6.4V72.5
		C174.4,71.8,174.3,71.2,174.1,70.6z"/>
	<g>
		<path class="st1" d="M93.2,96.9c-1.4,0-2.6-1.2-2.6-2.7v-80c0-1.5,1.2-2.7,2.6-2.7c1.4,0,2.6,1.2,2.6,2.7v80
			C95.8,95.7,94.6,96.9,93.2,96.9z"/>
	</g>
	<path class="st4" d="M154.9,56.2h-39.2c-2.8,0-5-2.4-5-5.3V14.2h22.3c4.1,0,7.8,2.8,9.2,6.9l9.7,29.5
		C152.5,52.7,153.5,54.6,154.9,56.2z"/>
	<path class="st5" d="M151.8,50.6l-9.7-29.5c-1.4-4.1-5-6.9-9.2-6.9h-8.2c4.1,0,7.8,2.8,9.2,6.9l9.7,29.5c0.7,2.1,1.8,4,3.2,5.6h8.2
		C153.5,54.6,152.5,52.7,151.8,50.6z"/>
	<path class="st6" d="M125.9,56.2h-10.2c-2.8,0-5-2.4-5-5.3V29.7h4.5c3.7,0,6.8,2.8,7.5,6.7L125.9,56.2z"/>
	<path class="st6" d="M139.7,45.6c-1-1.1-2.7-1.1-3.7,0s-1,2.8,0,3.9l6.3,6.7h7.3L139.7,45.6z"/>
	<g>
		<path class="st7" d="M135.6,52.7c-0.7,0-1.3-0.3-1.8-0.8c-1-1.1-1-2.8,0-3.9l4.6-4.8c1-1.1,2.7-1.1,3.7,0s1,2.8,0,3.9l-4.6,4.8
			C136.9,52.4,136.2,52.7,135.6,52.7z"/>
	</g>
	<g>
		<path class="st8" d="M174.4,84.5h-7.2c-1.4,0-2.6-1.2-2.6-2.7s1.2-2.7,2.6-2.7h7.2c1.4,0,2.6,1.2,2.6,2.7S175.8,84.5,174.4,84.5z"
			/>
	</g>
	<g>
		<path class="st3" d="M7.4,84.5H2.6c-1.4,0-2.6-1.2-2.6-2.7S1.2,79,2.6,79h4.8c1.4,0,2.6,1.2,2.6,2.7S8.8,84.5,7.4,84.5z"/>
	</g>
	<ellipse class="st6" cx="36.2" cy="97.6" rx="16.4" ry="17.4"/>
	<path class="st7" d="M36.2,80.3c-1,0-2,0.1-2.9,0.3C41,82,46.8,89.1,46.8,97.6s-5.8,15.6-13.5,17.1c0.9,0.2,1.9,0.3,2.9,0.3
		c9,0,16.4-7.8,16.4-17.4C52.6,88.1,45.2,80.3,36.2,80.3z"/>
	<ellipse class="st0" cx="36.2" cy="97.6" rx="5.8" ry="6.1"/>
	<path class="st1" d="M36.2,91.5c-0.9,0-1.7,0.2-2.4,0.6c2,1,3.4,3.1,3.4,5.6s-1.4,4.6-3.4,5.6c0.7,0.4,1.6,0.6,2.4,0.6
		c3.2,0,5.8-2.7,5.8-6.1S39.4,91.5,36.2,91.5z"/>
	<ellipse class="st6" cx="132.8" cy="97.6" rx="16.4" ry="17.4"/>
	<path class="st7" d="M132.8,80.3c-1,0-2,0.1-2.9,0.3c7.7,1.4,13.5,8.5,13.5,17.1s-5.8,15.6-13.5,17.1c0.9,0.2,1.9,0.3,2.9,0.3
		c9,0,16.4-7.8,16.4-17.4C149.2,88.1,141.9,80.3,132.8,80.3z"/>
	<ellipse class="st0" cx="132.8" cy="97.6" rx="5.8" ry="6.1"/>
	<path class="st1" d="M132.8,91.5c-0.9,0-1.7,0.2-2.4,0.6c2,1,3.4,3.1,3.4,5.6s-1.4,4.6-3.4,5.6c0.7,0.4,1.6,0.6,2.4,0.6
		c3.2,0,5.8-2.7,5.8-6.1S136,91.5,132.8,91.5z"/>
	<path class="st2" d="M73,35.8h-5.7c-0.2,0-0.4-0.2-0.4-0.4v-6c0-1.5-1.1-2.6-2.5-2.6h-6c-1.4,0-2.5,1.2-2.5,2.6v6
		c0,0.2-0.2,0.4-0.4,0.4h-5.7c-1.4,0-2.5,1.2-2.5,2.6v6.4c0,1.5,1.1,2.6,2.5,2.6h5.7c0.2,0,0.4,0.2,0.4,0.4v6c0,1.5,1.1,2.6,2.5,2.6
		h6c1.4,0,2.5-1.2,2.5-2.6v-6c0-0.2,0.2-0.4,0.4-0.4H73c1.4,0,2.5-1.2,2.5-2.6v-6.4C75.5,37,74.4,35.8,73,35.8L73,35.8z"/>
	<g>
		<path class="st3" d="M62.7,29.4v6c0,0.2,0.2,0.4,0.4,0.4h4.3c-0.2,0-0.4-0.2-0.4-0.4v-6c0-1.5-1.1-2.6-2.5-2.6h-4.3
			C61.5,26.8,62.7,28,62.7,29.4z"/>
		<path class="st3" d="M73,35.8h-4.3c1.4,0,2.5,1.2,2.5,2.6v6.4c0,1.5-1.1,2.6-2.5,2.6H73c1.4,0,2.5-1.2,2.5-2.6v-6.4
			C75.5,37,74.4,35.8,73,35.8L73,35.8z"/>
		<path class="st3" d="M62.7,47.9v6c0,1.5-1.1,2.6-2.5,2.6h4.3c1.4,0,2.5-1.2,2.5-2.6v-6c0-0.2,0.2-0.4,0.4-0.4H63
			C62.8,47.5,62.7,47.7,62.7,47.9z"/>
	</g>
	<g>
		<path class="st7" d="M33.5,52.7h-20c-1.4,0-2.6-1.2-2.6-2.7c0-1.5,1.2-2.7,2.6-2.7h20c1.4,0,2.6,1.2,2.6,2.7
			C36.1,51.5,35,52.7,33.5,52.7z"/>
	</g>
	<g>
		<path class="st7" d="M43.9,61.6H13.6c-1.4,0-2.6-1.2-2.6-2.7c0-1.5,1.2-2.7,2.6-2.7h30.3c1.4,0,2.6,1.2,2.6,2.7
			C46.5,60.3,45.3,61.6,43.9,61.6z"/>
	</g>
	<path class="st2" d="M127.8,14.2h-13.3V7.1c0-3.9,3-7.1,6.7-7.1s6.7,3.2,6.7,7.1L127.8,14.2z"/>
	<path class="st3" d="M121.1,0c-1,0-1.9,0.2-2.7,0.6c2.3,1.1,3.9,3.6,3.9,6.4v7.1h5.5V7.1C127.8,3.2,124.8,0,121.1,0L121.1,0z"/>
</g>
</svg>
