<svg id="Filled" height="512" viewBox="0 0 512 512" width="512" xmlns="http://www.w3.org/2000/svg"><path d="m40 312h432a16 16 0 0 1 16 16v48a0 0 0 0 1 0 0h-448a0 0 0 0 1 0 0v-64a0 0 0 0 1 0 0z" fill="#dadcde"/><g fill="#e9eef2"><rect height="80" rx="24" width="48" x="88" y="56"/><path d="m24 168h32v192h-32z"/><path d="m24 360h464v32h-464z"/></g><rect fill="#3397e8" height="64" rx="32" width="96" x="56" y="248"/><path d="m256 288h200a32 32 0 0 1 32 32v40a0 0 0 0 1 0 0h-232a0 0 0 0 1 0 0v-72a0 0 0 0 1 0 0z" fill="#3397e8"/><path d="m256 360h-32v-72a16 16 0 0 1 16-16 16 16 0 0 1 16 16z" fill="#d0d2d4"/><path d="m56 392h32v72h-32z" fill="#e1e3e6"/><path d="m424 392h32v72h-32z" fill="#e1e3e6"/><circle cx="72" cy="464" fill="#7e8589" r="24"/><path d="m72 496a32 32 0 1 1 32-32 32.036 32.036 0 0 1 -32 32zm0-48a16 16 0 1 0 16 16 16.019 16.019 0 0 0 -16-16z" fill="#6a7073"/><circle cx="440" cy="464" fill="#7e8589" r="24"/><path d="m440 496a32 32 0 1 1 32-32 32.036 32.036 0 0 1 -32 32zm0-48a16 16 0 1 0 16 16 16.019 16.019 0 0 0 -16-16z" fill="#6a7073"/><path d="m383.958 96-103.958 64c0 128 103.833 160 103.833 160s104.167-32 104.167-160c0-.167-104.042-64-104.042-64z" fill="#6ed2f0"/><path d="m383.856 285.338a130.055 130.055 0 0 1 -32.067-22.58c-22.723-21.868-35.806-50.528-39.011-85.36l71.207-43.836c25.254 15.5 54.008 33.162 71.239 43.775-3.206 34.848-16.334 63.517-39.146 85.4a130.588 130.588 0 0 1 -32.222 22.601z" fill="#e9eef2"/><path d="m456 280h-1.232c21.018-24.624 41.19-63.081 41.19-120.023a8 8 0 0 0 -3.806-6.812l-103.958-64a8.209 8.209 0 0 0 -8.43 0l-103.958 64a8 8 0 0 0 -3.806 6.812c0 56.942 20.172 95.4 41.19 120.023h-50.566a24 24 0 0 0 -46.624 8v16h-64.022a39.978 39.978 0 0 0 -31.978-64h-32a39.788 39.788 0 0 0 -24 8.022v-216.022h40v17.013a32.057 32.057 0 0 0 -24 30.987v32a32 32 0 0 0 64 0v-32a32.057 32.057 0 0 0 -24-30.987v-25.013a8 8 0 0 0 -8-8h-56a8 8 0 0 0 -8 8v136h-24a8 8 0 0 0 -8 8v224a8 8 0 0 0 8 8h24v42.868a31.989 31.989 0 1 0 55.938 23.032l152.062-29.748 152.06 29.764a32 32 0 1 0 55.94-23.048v-42.868h24a8 8 0 0 0 8-8v-72a40.045 40.045 0 0 0 -40-40zm-328-200v32a16 16 0 0 1 -32 0v-32a16 16 0 0 1 32 0zm160.043 84.42 95.936-59.062 95.936 59.062c-.939 48.443-17.34 87.853-48.784 117.2a149.3 149.3 0 0 1 -47.163 29.932 147.983 147.983 0 0 1 -46.62-29.449c-31.784-29.386-48.36-68.963-49.305-117.683zm-56.043 123.58a8 8 0 0 1 16 0v64h-16zm-144-32h32a24 24 0 0 1 0 48h-32a24 24 0 0 1 0-48zm-24 64h152v32h-152zm-32-144h16v176h-16zm40 304a16 16 0 1 1 16-16 16.019 16.019 0 0 1 -16 16zm-8-46.987v-33.013h16v33.013a32.1 32.1 0 0 0 -16 0zm36.867 17.187a32.084 32.084 0 0 0 -4.867-7.332v-38.035l118.345 23.167zm155.133-30.351-101.4-19.849h202.847zm160 23.019a32.1 32.1 0 0 0 -4.873 7.345l-113.471-22.213 118.344-23.152zm24 37.132a16 16 0 1 1 16-16 16.019 16.019 0 0 1 -16 16zm-8-46.987v-33.013h16v33.013a32.1 32.1 0 0 0 -16 0zm48-49.013h-448v-16h448zm0-32h-216v-56h64.857c26.166 23.286 51.522 31.284 52.62 31.622a7.993 7.993 0 0 0 2.359.357h.286a8 8 0 0 0 2.359-.357c1.1-.338 26.454-8.336 52.62-31.622h16.899a24.028 24.028 0 0 1 24 24z"/><path d="m346.242 268.522a138.234 138.234 0 0 0 34.064 23.986 8.005 8.005 0 0 0 7.087.006 138.681 138.681 0 0 0 34.222-24.008c24.2-23.21 38.19-53.637 41.576-90.436a8 8 0 0 0 -3.771-7.545c-17.235-10.615-45.992-28.28-71.251-43.782a8 8 0 0 0 -8.379.006l-71.206 43.837a8 8 0 0 0 -3.772 7.546c3.388 36.778 17.323 67.19 41.43 90.39zm37.748-125.57c22.16 13.6 46.325 28.446 62.743 38.551-3.76 30.648-15.922 56.016-36.192 75.455a122.764 122.764 0 0 1 -26.678 19.378 122.249 122.249 0 0 1 -26.526-19.343c-20.192-19.432-32.313-44.789-36.067-75.428z"/><path d="m376 240a7.974 7.974 0 0 0 5.657-2.343l40-40a8 8 0 0 0 -11.314-11.314l-34.343 34.344-10.343-10.344a8 8 0 0 0 -11.314 11.314l16 16a7.974 7.974 0 0 0 5.657 2.343z"/></svg>