<?xml version="1.0" encoding="utf-8"?>
<!-- Generator: Adobe Illustrator 23.0.1, SVG Export Plug-In . SVG Version: 6.00 Build 0)  -->
<!DOCTYPE svg PUBLIC "-//W3C//DTD SVG 1.1//EN" "http://www.w3.org/Graphics/SVG/1.1/DTD/svg11.dtd" [
	<!ENTITY ns_extend "http://ns.adobe.com/Extensibility/1.0/">
	<!ENTITY ns_ai "http://ns.adobe.com/AdobeIllustrator/10.0/">
	<!ENTITY ns_graphs "http://ns.adobe.com/Graphs/1.0/">
	<!ENTITY ns_vars "http://ns.adobe.com/Variables/1.0/">
	<!ENTITY ns_imrep "http://ns.adobe.com/ImageReplacement/1.0/">
	<!ENTITY ns_sfw "http://ns.adobe.com/SaveForWeb/1.0/">
	<!ENTITY ns_custom "http://ns.adobe.com/GenericCustomNamespace/1.0/">
	<!ENTITY ns_adobe_xpath "http://ns.adobe.com/XPath/1.0/">
]>
<svg version="1.1" id="Layer_1" xmlns:x="&ns_extend;" xmlns:i="&ns_ai;" xmlns:graph="&ns_graphs;"
	 xmlns="http://www.w3.org/2000/svg" xmlns:xlink="http://www.w3.org/1999/xlink" x="0px" y="0px" viewBox="0 0 432 273"
	 style="enable-background:new 0 0 432 273;" xml:space="preserve">
<style type="text/css">
	.st0{fill:#D3E1E9;}
	.st1{fill:#8ACCE7;}
	.st2{fill:#379EC3;}
	.st3{fill:#C4D4E0;}
	.st4{fill:#E44B4D;}
	.st5{fill:#395166;}
	.st6{fill:#2D80B3;}
	.st7{fill:#396795;}
	.st8{fill:#67F48C;}
	.st9{fill:#B5F4C5;}
	.st10{fill:#DA4A54;}
	.st11{fill:#D82E3D;}
	.st12{fill:#A2F2BB;}
	.st13{fill:#B1E4F9;}
	.st14{fill:#75CEF9;}
	.st15{fill:#544F57;}
	.st16{fill:#454045;}
	.st17{fill:#F6E266;}
	.st18{fill:#F6F1F1;}
	.st19{fill:#EADFDA;}
</style>
<metadata>
	<sfw  xmlns="&ns_sfw;">
		<slices></slices>
		<sliceSourceBounds  bottomLeftOrigin="true" height="273" width="394.2" x="18" y="-273"></sliceSourceBounds>
	</sfw>
</metadata>
<g>
	<g id="Flat">
		<path class="st0" d="M96.7,83.3H217v185.1H96.7V83.3z"/>
		<path class="st1" d="M96.7,208.2H217v60.2H96.7V208.2z"/>
		<path class="st2" d="M92,64.8h129.6c5.1,0,9.3,4.1,9.3,9.3l0,0c0,5.1-4.1,9.3-9.3,9.3H92c-5.1,0-9.3-4.1-9.3-9.3l0,0
			C82.8,68.9,86.9,64.8,92,64.8z"/>
		<path class="st1" d="M105.9,0h101.8v64.8H105.9V0z"/>
		<circle class="st3" cx="156.8" cy="32.4" r="32.4"/>
		<path class="st4" d="M175.3,23.1h-9.3v-9.3h-18.5v9.3h-9.3v18.5h9.3v9.3h18.5v-9.3h9.3V23.1z"/>
		<path class="st2" d="M152.2,217.5h9.3v50.9h-9.3V217.5z"/>
		<path class="st5" d="M138.3,236h9.3v13.9h-9.3V236z"/>
		<path class="st5" d="M166.1,236h9.3v13.9h-9.3V236z"/>
		<path class="st2" d="M31.9,115.7h64.8l0,0v18.5l0,0H31.9c-5.1,0-9.3-4.1-9.3-9.3S26.8,115.7,31.9,115.7z"/>
		<path class="st3" d="M31.9,134.2h64.8v134.2H31.9V134.2z"/>
		<path class="st1" d="M50.4,152.7h46.3V236H50.4V152.7z"/>
		<path class="st2" d="M281.7,134.2H217l0,0v-18.5l0,0h64.8c5.1,0,9.3,4.1,9.3,9.3S286.9,134.2,281.7,134.2z"/>
		<path class="st3" d="M281.7,268.4H217V134.2h64.8V268.4z"/>
		<path class="st1" d="M263.2,236H217v-83.3h46.3V236z"/>
		<path class="st2" d="M78.2,152.7h-9.3v23.1H50.4v9.3h18.5v18.5H50.4v9.3h18.5V236h9.3v-23.1h18.5v-9.3H78.2v-18.5h18.5v-9.3H78.2
			V152.7z"/>
		<path class="st2" d="M263.2,185.1v-9.3h-18.5v-23.1h-9.3v23.1H217v9.3h18.5v18.5H217v9.3h18.5V236h9.3v-23.1h18.5v-9.3h-18.5
			v-18.5H263.2z"/>
		<path class="st1" d="M115.2,106.4h83.3V199h-83.3V106.4z"/>
		<path class="st2" d="M198.5,134.2v-9.3h-37v-18.5h-9.3v18.5h-37v9.3h37v13.9h-37v9.3h37v13.9h-37v9.3h37V199h9.3v-18.5h37v-9.3
			h-37v-13.9h37v-9.3h-37v-13.9H198.5z"/>
		<path class="st6" d="M92,199h129.6c5.1,0,9.3,4.1,9.3,9.3l0,0c0,5.1-4.1,9.3-9.3,9.3H92c-5.1,0-9.3-4.1-9.3-9.3l0,0
			C82.8,203.1,86.9,199,92,199z"/>
		<path class="st7" d="M92,217.5h18.5v50.9H92V217.5z"/>
		<path class="st7" d="M203.1,217.5h18.5v50.9h-18.5V217.5z"/>
		<path class="st5" d="M18,263.7h277.6v9.3H18V263.7z"/>
	</g>
	<g>
		<path class="st8" d="M409,247.7l-7-4c-0.8-0.4-1.5-1-2.1-1.6h-4.5l-20.1-18.5V220h-56.9c-1.7,0-3.1,1.4-3.1,3.1v26.5l2.6,5.8h89.5
			l3-5.8C410.3,248.8,409.8,248.1,409,247.7z"/>
		<path class="st9" d="M409,247.7l-7-4c-0.8-0.4-1.5-1-2.1-1.6h-4.5l-0.3-0.3c0.1,0.1,0.2,0.2,0.3,0.3c0.6,0.7,1.3,1.2,2.1,1.6l7,4
			c0.8,0.4,1.3,1.1,1.5,1.9c0.1,0.3,0.2,0.7,0.2,1v4.8h1.4l3-5.8C410.3,248.8,409.8,248.1,409,247.7L409,247.7z"/>
		<path class="st10" d="M410.7,250.6v8c0,1.9-1.5,3.4-3.3,3.4h-88.9c-1.7,0-3.1-1.4-3.1-3.1v-9.3h95.2
			C410.7,249.9,410.7,250.2,410.7,250.6z"/>
		<path class="st11" d="M410.6,249.6H406c0.1,0.3,0.2,0.7,0.2,1v8c0,1.9-1.5,3.4-3.3,3.4h4.5c1.8,0,3.3-1.5,3.3-3.4v-8
			C410.7,250.2,410.7,249.9,410.6,249.6z"/>
		<g>
			<path class="st12" d="M365.7,263.4c-0.8,0-1.4-0.6-1.4-1.4V220c0-0.8,0.6-1.4,1.4-1.4c0.8,0,1.4,0.6,1.4,1.4v41.9
				C367.1,262.7,366.5,263.4,365.7,263.4z"/>
		</g>
		<path class="st13" d="M399.9,242h-21.8c-1.5,0-2.8-1.2-2.8-2.8V220h12.3c2.3,0,4.3,1.4,5.1,3.6l5.4,15.4
			C398.6,240.2,399.2,241.2,399.9,242z"/>
		<path class="st14" d="M398.2,239.1l-5.4-15.4c-0.8-2.2-2.8-3.6-5.1-3.6h-4.5c2.3,0,4.3,1.4,5.1,3.6l5.4,15.4
			c0.4,1.1,1,2.1,1.8,2.9h4.5C399.2,241.2,398.6,240.2,398.2,239.1z"/>
		<path class="st15" d="M383.8,242h-5.7c-1.5,0-2.8-1.2-2.8-2.8v-11.1h2.5c2,0,3.8,1.5,4.1,3.5L383.8,242z"/>
		<path class="st15" d="M391.5,236.5c-0.6-0.6-1.5-0.6-2,0c-0.6,0.6-0.6,1.5,0,2l3.5,3.5h4.1L391.5,236.5z"/>
		<g>
			<path class="st16" d="M389.2,240.2c-0.4,0-0.7-0.1-1-0.4c-0.6-0.6-0.6-1.5,0-2l2.5-2.5c0.6-0.6,1.5-0.6,2,0s0.6,1.5,0,2l-2.5,2.5
				C389.9,240.1,389.6,240.2,389.2,240.2z"/>
		</g>
		<g>
			<path class="st17" d="M410.7,256.9h-4c-0.8,0-1.4-0.6-1.4-1.4s0.6-1.4,1.4-1.4h4c0.8,0,1.4,0.6,1.4,1.4S411.5,256.9,410.7,256.9z
				"/>
		</g>
		<g>
			<path class="st11" d="M318,256.9h-2.6c-0.8,0-1.4-0.6-1.4-1.4s0.6-1.4,1.4-1.4h2.6c0.8,0,1.4,0.6,1.4,1.4S318.8,256.9,318,256.9z
				"/>
		</g>
		<circle class="st15" cx="334.1" cy="263.7" r="9.1"/>
		<path class="st16" d="M334.1,254.7c-0.5,0-1.1,0.1-1.6,0.1c4.3,0.8,7.5,4.5,7.5,8.9s-3.2,8.2-7.5,8.9c0.5,0.1,1.1,0.1,1.6,0.1
			c5,0,9.1-4.1,9.1-9.1C343.1,258.7,339.1,254.7,334.1,254.7z"/>
		<circle class="st18" cx="334.1" cy="263.7" r="3.2"/>
		<path class="st19" d="M334.1,260.5c-0.5,0-0.9,0.1-1.3,0.3c1.1,0.5,1.9,1.6,1.9,2.9s-0.8,2.4-1.9,2.9c0.4,0.2,0.9,0.3,1.3,0.3
			c1.8,0,3.2-1.4,3.2-3.2C337.3,262,335.8,260.5,334.1,260.5z"/>
		<circle class="st15" cx="387.7" cy="263.7" r="9.1"/>
		<path class="st16" d="M387.7,254.7c-0.5,0-1.1,0.1-1.6,0.1c4.3,0.8,7.5,4.5,7.5,8.9s-3.2,8.2-7.5,8.9c0.5,0.1,1.1,0.1,1.6,0.1
			c5,0,9.1-4.1,9.1-9.1C396.7,258.7,392.7,254.7,387.7,254.7z"/>
		<circle class="st18" cx="387.7" cy="263.7" r="3.2"/>
		<path class="st19" d="M387.7,260.5c-0.5,0-0.9,0.1-1.3,0.3c1.1,0.5,1.9,1.6,1.9,2.9s-0.8,2.4-1.9,2.9c0.4,0.2,0.9,0.3,1.3,0.3
			c1.8,0,3.2-1.4,3.2-3.2C390.9,262,389.4,260.5,387.7,260.5z"/>
		<path class="st10" d="M354.5,231.4h-3.2c-0.1,0-0.2-0.1-0.2-0.2V228c0-0.8-0.6-1.4-1.4-1.4h-3.3c-0.8,0-1.4,0.6-1.4,1.4v3.2
			c0,0.1-0.1,0.2-0.2,0.2h-3.2c-0.8,0-1.4,0.6-1.4,1.4v3.3c0,0.8,0.6,1.4,1.4,1.4h3.2c0.1,0,0.2,0.1,0.2,0.2v3.2
			c0,0.8,0.6,1.4,1.4,1.4h3.3c0.8,0,1.4-0.6,1.4-1.4v-3.2c0-0.1,0.1-0.2,0.2-0.2h3.2c0.8,0,1.4-0.6,1.4-1.4v-3.3
			C355.8,232,355.2,231.4,354.5,231.4L354.5,231.4z"/>
		<g>
			<path class="st11" d="M348.7,228v3.2c0,0.1,0.1,0.2,0.2,0.2h2.4c-0.1,0-0.2-0.1-0.2-0.2V228c0-0.8-0.6-1.4-1.4-1.4h-2.4
				C348.1,226.7,348.7,227.3,348.7,228z"/>
			<path class="st11" d="M354.5,231.4h-2.4c0.8,0,1.4,0.6,1.4,1.4v3.3c0,0.8-0.6,1.4-1.4,1.4h2.4c0.8,0,1.4-0.6,1.4-1.4v-3.3
				C355.8,232,355.2,231.4,354.5,231.4L354.5,231.4z"/>
			<path class="st11" d="M348.7,237.7v3.2c0,0.8-0.6,1.4-1.4,1.4h2.4c0.8,0,1.4-0.6,1.4-1.4v-3.2c0-0.1,0.1-0.2,0.2-0.2h-2.4
				C348.8,237.5,348.7,237.6,348.7,237.7z"/>
		</g>
		<g>
			<path class="st16" d="M332.6,240.2h-11.1c-0.8,0-1.4-0.6-1.4-1.4c0-0.8,0.6-1.4,1.4-1.4h11.1c0.8,0,1.4,0.6,1.4,1.4
				C334,239.6,333.4,240.2,332.6,240.2z"/>
		</g>
		<g>
			<path class="st16" d="M338.3,244.9h-16.8c-0.8,0-1.4-0.6-1.4-1.4c0-0.8,0.6-1.4,1.4-1.4h16.8c0.8,0,1.4,0.6,1.4,1.4
				C339.8,244.2,339.1,244.9,338.3,244.9z"/>
		</g>
		<path class="st10" d="M384.9,220h-7.4v-3.7c0-2,1.7-3.7,3.7-3.7s3.7,1.7,3.7,3.7V220z"/>
		<path class="st11" d="M381.1,212.6c-0.5,0-1.1,0.1-1.5,0.3c1.3,0.6,2.2,1.9,2.2,3.4v3.7h3v-3.7
			C384.9,214.3,383.2,212.6,381.1,212.6L381.1,212.6z"/>
	</g>
</g>
</svg>
