<?xml version="1.0" encoding="utf-8"?>
<!-- Generator: Adobe Illustrator 23.0.1, SVG Export Plug-In . SVG Version: 6.00 Build 0)  -->
<!DOCTYPE svg PUBLIC "-//W3C//DTD SVG 1.1//EN" "http://www.w3.org/Graphics/SVG/1.1/DTD/svg11.dtd" [
	<!ENTITY ns_extend "http://ns.adobe.com/Extensibility/1.0/">
	<!ENTITY ns_ai "http://ns.adobe.com/AdobeIllustrator/10.0/">
	<!ENTITY ns_graphs "http://ns.adobe.com/Graphs/1.0/">
	<!ENTITY ns_vars "http://ns.adobe.com/Variables/1.0/">
	<!ENTITY ns_imrep "http://ns.adobe.com/ImageReplacement/1.0/">
	<!ENTITY ns_sfw "http://ns.adobe.com/SaveForWeb/1.0/">
	<!ENTITY ns_custom "http://ns.adobe.com/GenericCustomNamespace/1.0/">
	<!ENTITY ns_adobe_xpath "http://ns.adobe.com/XPath/1.0/">
]>
<svg version="1.1" id="Layer_1" xmlns:x="&ns_extend;" xmlns:i="&ns_ai;" xmlns:graph="&ns_graphs;"
	 xmlns="http://www.w3.org/2000/svg" xmlns:xlink="http://www.w3.org/1999/xlink" x="0px" y="0px" viewBox="0 0 202 34"
	 style="enable-background:new 0 0 202 34;" xml:space="preserve">
<style type="text/css">
	.st0{fill:#00897B;}
	.st1{fill:#009688;}
	.st2{fill:#B0BEC5;}
	.st3{fill:#607D8B;}
</style>
<metadata>
	<sfw  xmlns="&ns_sfw;">
		<slices></slices>
		<sliceSourceBounds  bottomLeftOrigin="true" height="34" width="200.1" x="0.7" y="-34"></sliceSourceBounds>
	</sfw>
</metadata>
<g>
	<g>
		<path class="st0" d="M12.7,34L12.7,34c-0.4,0-0.7-0.3-0.7-0.7c0,0,0,0,0,0c-0.1-1.4,0.6-2.7,1.8-3.4c0.3-0.2,0.8-0.1,1,0.3
			c0.2,0.3,0.1,0.8-0.2,1c-0.7,0.5-1.1,1.4-1.1,2.3C13.4,33.7,13.1,34,12.7,34z"/>
		<path class="st1" d="M23.8,13.7c-0.6-0.5-1.3-0.9-2.1-0.9c-0.7-0.1-1.4,0.1-1.9,0.6c-0.3,0.3-0.4,0.6-0.4,1c0,0.4,0.2,0.7,0.5,1
			c1,1,0.8,1.7-0.7,3.2c-0.3,0.3-0.3,0.7,0,1c0.1,0.1,0.3,0.2,0.5,0.2c0.1,0,0.1,0,0.2,0c1.3-0.4,4.3-1.5,4.7-3.5
			C24.9,15.3,24.6,14.3,23.8,13.7z"/>
		<path class="st2" d="M32.5,8.5c-1.5-0.3-2.9-1-4.1-2.1c-1.2-1.1-2.8-1.9-4.4-2.2c-2.3,0-5.9,2-7.1,2.7c-1.2-0.7-4.8-2.7-7.1-2.7
			c-1.7,0.3-3.2,1-4.4,2.2C4.3,7.5,2.9,8.2,1.4,8.5C1,8.5,0.7,8.8,0.7,9.2c0,0.3,0.2,0.6,0.6,0.7c5.2,0.9,10.5,1.4,15.7,1.4
			c5.3,0,10.5-0.5,15.7-1.4c0.4-0.1,0.6-0.5,0.6-0.8C33.2,8.7,32.9,8.5,32.5,8.5z"/>
		<g>
			<circle class="st3" cx="16.9" cy="3.5" r="3.5"/>
			<path class="st3" d="M16.9,34c-0.4,0-0.7-0.3-0.7-0.7V6.4c0-0.4,0.3-0.7,0.7-0.7s0.7,0.3,0.7,0.7v26.9C17.7,33.7,17.3,34,16.9,34
				z"/>
		</g>
		<path class="st0" d="M23.2,24c-0.3-2.1-3.1-3.1-5-3.7c-0.4-0.1-0.7-0.2-0.9-0.3l0,0c-1.6-0.7-3.6-2.2-3.8-3.4
			c-0.1-0.4,0.1-0.8,0.4-1.1c0.6-0.4,0.7-1.3,0.3-1.9c0,0-0.1-0.1-0.1-0.1c-1.2-0.9-2.9-0.8-4,0.2c-0.7,0.6-1.1,1.5-0.9,2.4
			C9.9,19,16,21,16.7,21.2c0.3,0.1,0.6,0.2,1,0.4c1.4,0.5,3.9,1.4,4.1,2.6c0.1,0.7-0.8,1.8-2.4,2.9c-0.3,0.2-0.4,0.7-0.2,1
			s0.7,0.4,1,0.2C22.4,26.7,23.4,25.3,23.2,24z"/>
		<path class="st1" d="M21.2,34c0,0-0.1,0-0.1,0c-0.4-0.1-0.6-0.4-0.6-0.8c0-0.1,0.3-2.2-3.8-3.4c-4-1.2-6-2.6-6.2-4.3
			c-0.2-1.4,0.9-2.8,3.2-4.1c0.3-0.2,0.8-0.1,1,0.3c0.2,0.3,0.1,0.8-0.3,1c-1.7,0.9-2.6,1.9-2.5,2.7c0.1,0.5,0.7,1.8,5.2,3.1
			c5.3,1.6,4.8,4.9,4.7,5.1C21.8,33.8,21.5,34,21.2,34z"/>
	</g>
	<g>
		<path d="M37.8,6.4h3l4.5,15.6l4.5-15.6h3v20.1h-2.2V11.1L46,26.5h-1.6L40,11.1v15.4h-2.2V6.4z"/>
		<path d="M56.2,6.4h10.7v2.2h-8.5v6.2h7.9v2.2h-7.9v7.2h9v2.2H56.2V6.4z"/>
		<path d="M70.3,6.4h5.8c1.9,0,3.6,0.8,5,2.5c1.4,1.7,2.1,4.3,2.1,7.8c0,3.3-0.7,5.8-2.2,7.6c-1.2,1.5-2.9,2.2-4.9,2.2h-5.8V6.4z
			 M72.6,8.6v15.6h3.5c1.2,0,2.2-0.5,3-1.4c1.2-1.5,1.9-3.6,1.9-6.2c0-2.8-0.6-4.9-1.8-6.4c-0.9-1.1-1.9-1.6-3.1-1.6H72.6z"/>
		<path d="M85.7,6.4h4.4V9H89v14.9h1.1v2.6h-4.4v-2.6h1.1V9h-1.1V6.4z"/>
		<path d="M91.7,15.2h11.1v1.9H91.7V15.2z"/>
		<path d="M106.7,7.8c0.9-1.1,2.3-1.6,4.2-1.6c2,0,3.5,0.6,4.6,1.9c0.9,1.1,1.4,2.4,1.4,3.9h-2.2c0-0.9-0.3-1.7-0.8-2.4
			c-0.6-0.7-1.5-1.1-2.7-1.1c-1.4,0-2.3,0.3-2.8,0.9c-0.5,0.5-0.7,1.2-0.7,1.9c0,0.7,0.1,1.2,0.4,1.5c0.3,0.4,0.9,0.8,1.8,1.2
			c1.5,0.8,3.2,1.7,5.1,2.7c0.5,0.2,1,0.6,1.5,1.2c0.7,0.9,1.1,1.9,1.1,3.1c0,1.6-0.5,2.9-1.4,4c-1,1.2-2.6,1.8-4.8,1.8
			c-2.1,0-3.8-0.7-5-2.1c-0.8-1-1.3-2.5-1.3-4.5h2.2c0,1.4,0.3,2.4,0.8,3.1c0.7,0.9,1.8,1.3,3.3,1.3c1.4,0,2.4-0.4,3-1.2
			c0.5-0.6,0.8-1.3,0.8-1.9c0-0.7-0.2-1.3-0.6-1.8c-0.3-0.4-0.8-0.8-1.6-1.2c-0.7-0.4-1.5-0.9-2.5-1.4c-1.2-0.6-2.1-1.1-2.8-1.5
			c-0.5-0.2-1-0.6-1.4-1.1c-0.6-0.7-0.9-1.6-0.9-2.8C105.3,10.2,105.8,8.9,106.7,7.8z"/>
		<path d="M122.3,8.4c1.2-1.5,2.8-2.2,4.8-2.2c1.9,0,3.5,0.7,4.6,2c1.2,1.4,1.8,3.2,1.9,5.4h-2.3c-0.1-1.6-0.6-2.9-1.3-3.8
			c-0.8-0.9-1.7-1.4-2.8-1.4c-1.2,0-2.2,0.5-3.1,1.6c-1.2,1.4-1.8,3.6-1.8,6.5c0,2.9,0.6,5.1,1.8,6.5c0.8,1,1.9,1.5,3.1,1.5
			c1.3,0,2.3-0.4,3-1.3c0.9-1.1,1.4-2.7,1.4-4.7h2.3c-0.1,2.7-0.7,4.7-2,6.2c-1.1,1.3-2.7,2-4.8,2c-2,0-3.5-0.7-4.8-2.2
			c-1.6-2-2.4-4.6-2.4-8C119.8,13.1,120.6,10.4,122.3,8.4z"/>
		<path d="M135.9,6.4h4.4V9h-1.1v14.9h1.1v2.6h-4.4v-2.6h1.1V9h-1.1V6.4z"/>
		<path d="M142.8,6.4h10.7v2.2h-8.5v6.2h7.9v2.2h-7.9v7.2h9v2.2h-11.2V6.4z"/>
		<path d="M157.1,6.4h2.4l7.8,15.9V6.4h2.2v20.1h-2.4l-7.8-15.9v15.9h-2.2V6.4z"/>
		<path d="M175.1,8.4c1.2-1.5,2.8-2.2,4.8-2.2c1.9,0,3.5,0.7,4.6,2c1.2,1.4,1.8,3.2,1.9,5.4H184c-0.1-1.6-0.6-2.9-1.3-3.8
			c-0.8-0.9-1.7-1.4-2.8-1.4c-1.2,0-2.2,0.5-3.1,1.6c-1.2,1.4-1.8,3.6-1.8,6.5c0,2.9,0.6,5.1,1.8,6.5c0.8,1,1.9,1.5,3.1,1.5
			c1.3,0,2.3-0.4,3-1.3c0.9-1.1,1.4-2.7,1.4-4.7h2.3c-0.1,2.7-0.7,4.7-2,6.2c-1.1,1.3-2.7,2-4.8,2c-2,0-3.5-0.7-4.8-2.2
			c-1.6-2-2.4-4.6-2.4-8C172.7,13.1,173.5,10.4,175.1,8.4z"/>
		<path d="M189.5,6.4h10.7v2.2h-8.5v6.2h7.9v2.2h-7.9v7.2h9v2.2h-11.2V6.4z"/>
	</g>
</g>
</svg>
