<?xml version="1.0" encoding="utf-8"?>
<!-- Generator: Adobe Illustrator 23.0.1, SVG Export Plug-In . SVG Version: 6.00 Build 0)  -->
<svg version="1.1" id="Layer_1" xmlns="http://www.w3.org/2000/svg" xmlns:xlink="http://www.w3.org/1999/xlink" x="0px" y="0px"
	 viewBox="0 0 371 295" style="enable-background:new 0 0 371 295;" xml:space="preserve">
<style type="text/css">
	.st0{fill:#A0D2FF;}
	.st1{fill:#82C4FF;}
	.st2{fill:#FFFFFF;}
	.st3{fill:#076673;}
	.st4{fill:#666666;}
	.st5{fill:#FF4654;}
	.st6{fill:#FD2A39;}
	.st7{fill:#FF636E;}
	.st8{fill:#FF7F87;}
	.st9{fill:#F2F3F4;}
	.st10{fill:#FFD500;}
	.st11{fill:#FBC700;}
	.st12{fill:#FFE559;}
	.st13{fill:#FFE02F;}
	.st14{fill-rule:evenodd;clip-rule:evenodd;fill:#F9F7F8;}
	.st15{fill-rule:evenodd;clip-rule:evenodd;fill:#75CEF8;}
	.st16{fill-rule:evenodd;clip-rule:evenodd;fill:#F24455;}
	.st17{fill-rule:evenodd;clip-rule:evenodd;fill:#DDDAEC;}
	.st18{fill-rule:evenodd;clip-rule:evenodd;fill:#FFE5C1;}
	.st19{fill-rule:evenodd;clip-rule:evenodd;fill:#FFD772;}
	.st20{fill-rule:evenodd;clip-rule:evenodd;fill:#FBBA58;}
	.st21{fill-rule:evenodd;clip-rule:evenodd;fill:#FED1A3;}
	.st22{fill-rule:evenodd;clip-rule:evenodd;fill:#B1E4F9;}
	.st23{fill:#52E2AE;}
	.st24{fill:#66F2B6;}
	.st25{fill:#2BED8B;}
	.st26{fill:#1CA8FF;}
	.st27{fill:#0094FD;}
	.st28{fill:#60B9FE;}
	.st29{fill:#8BCAFF;}
	.st30{fill:#B5DCFF;}
	.st31{fill-rule:evenodd;clip-rule:evenodd;fill:#EB5468;}
	.st32{fill-rule:evenodd;clip-rule:evenodd;fill:#E5384F;}
	.st33{fill:#FFD039;}
	.st34{fill:#FFAE47;}
	.st35{fill:#FF9522;}
	.st36{fill:#E93234;}
	.st37{fill:#F9F1EF;}
	.st38{fill:#BF161C;}
	.st39{fill:#CCCCCC;}
	.st40{fill:#DD7917;}
	.st41{fill:#414451;}
	.st42{fill:#F9C68F;}
	.st43{fill:#0E9E52;}
	.st44{fill:#EEF3F7;}
	.st45{fill:#FEFEFE;}
	.st46{fill:#0F7986;}
	.st47{fill:#EBECEC;}
	.st48{fill:#21D0C3;}
	.st49{fill:#4D4D4D;}
	.st50{fill:#FED19A;}
	.st51{fill:#F0BA7D;}
	.st52{fill:#0C6B29;}
	.st53{fill:#FED298;}
	.st54{fill:#B3B3B3;}
	.st55{fill:#15BDB2;}
	.st56{fill:#D9DADA;}
</style>
<g>
	<g>
		<g>
			<path class="st0" d="M0,157.5v42.4c0,42.6,39.3,77.2,87.9,77.2l195,0.2c48.6,0,88-34.4,88-77v-42.4C371,64.3,291.7,1.2,185.6,1.1
				S0.1,64,0,157.5z M258,97.3c0,25.7-32.5,46.6-72.5,46.6s-72.5-21-72.5-46.7s32.5-46.6,72.5-46.6S258.1,71.6,258,97.3z"/>
			<path class="st1" d="M0,157.5v26.7C0,90.5,79.5,27.6,185.6,27.7C291.7,27.8,371,90.9,371,184.5v-26.7
				C371.1,64.3,291.8,1.1,185.7,1S0.1,64,0,157.5z"/>
		</g>
		<path class="st2" d="M339,223.4c0,0.8-0.2,1.6-0.7,2.3c-19.1,31.3-59.3,31.1-62.1,31h-41.4c-3.1,0-5.6-2.2-5.6-5
			c0-2.7,2.5-5,5.6-5h41.4c0.1,0,0.1,0,0.2,0s9.3,0.2,20.3-3c14.4-4.1,25-11.8,31.7-22.7c1.5-2.4,4.9-3.3,7.6-2
			C337.9,219.9,339,221.6,339,223.4L339,223.4z"/>
	</g>
	<g>
		<path d="M225.1,71.6c-0.4-1-1.4-1.6-2.4-1.6h-2.1c-3.2,0-6.5-0.2-9.7-0.7c-0.6-0.1-1.2,0.4-1.3,1c-0.1,0.7,0.4,1.2,1,1.3
			c3.3,0.5,6.7,0.7,10,0.7h2.1c0,0,0.2,0,0.2,0.2c0.1,0.2,0,0.3-0.1,0.3l-1.7,1.7c-1,1-2.3,1.5-3.6,1.5H216c-2,0-3.9,0.7-5.4,2.2
			c-1,1-2.3,1.5-3.6,1.5H204c-1,0-2,0.2-3,0.7c-0.2-0.1-0.3-0.2-0.5-0.3c-1.2-0.6-2.5-0.7-3.8-0.6c-1.1,0.2-2.2,0.7-3,1.4
			c-0.9,0.8-1.5,2-1.5,3.1c0,0.1,0,0.2,0,0.3h-2.9V72.6l0,0c3.3-2.9,7.9-3.9,12.1-2.7c1.4,0.4,2.8,0.7,4.3,1
			c0.6,0.1,1.3-0.3,1.4-0.9c0.1-0.7-0.3-1.3-0.9-1.4c-1.4-0.3-2.8-0.7-4.1-1c-4.4-1.2-9.1-0.5-12.8,2.1v-2.3
			c1.8-1.2,2.9-3.2,2.9-5.3c0-3.6-2.9-6.4-6.3-6.4c-3.5,0-6.3,2.9-6.3,6.4c0,2.2,1.1,4.2,2.9,5.3v2.3c-3.7-2.5-8.4-3.3-12.8-2.1
			c-6,1.7-12.1,2.5-18.3,2.5h-2.1c-1,0-2,0.7-2.4,1.6c-0.4,0.9-0.2,2.2,0.6,2.9l1.7,1.7c1.4,1.4,3.3,2.2,5.4,2.2h1.5
			c1.4,0,2.7,0.6,3.6,1.5c1.4,1.4,3.3,2.2,5.4,2.2h1.2c-0.7,0.5-1.3,0.9-1.9,1.5c-1.5,1.7-2.2,3.6-2.2,5.7c0,2.2,1,4.6,2.8,6.1
			c1.5,1.3,3.2,2,5,2.5c0.1,0,0.3,0.1,0.4,0.1c0.5,0,0.9-0.3,1.1-0.8c0.2-0.7-0.1-1.3-0.7-1.5c-1.5-0.5-3.1-1-4.2-2.1
			c-1.2-1-1.9-2.7-1.9-4.3c0-1.4,0.6-2.8,1.7-4.1c0.5-0.6,1.1-1,1.9-1.4c0.6-0.3,1.1-0.5,1.7-0.7c0.4-0.1,0.6-0.3,1-0.4
			c1.3-0.6,2.9-1,4.3-0.8c1.1,0.2,2.3,1.1,2.3,2.2c0,0.7-0.5,1.4-1.1,1.8c-0.6,0.4-1.6,0.6-2.5,0.4c-0.4-0.1-0.6-0.2-1-0.3
			c-1-0.3-2.2-0.7-3.5-0.3c-1.1,0.4-2,1.3-2.4,2.6c-0.4,1.3-0.1,2.6,0.7,3.5c0.7,0.8,1.8,1.2,2.5,1.4c4.1,1.4,8.1,2.8,12.3,4.1
			c-0.9,0.4-1.9,0.7-2.9,1.2c-1.4-0.5-2.8-0.9-4.1-1.4c-0.6-0.2-1.3,0.1-1.5,0.7s0.1,1.3,0.7,1.5c0.8,0.3,1.7,0.6,2.4,0.8
			c-2.1,2.1-3.2,5.1-3,8.4c0.2,3.2,2,6,5.3,8.2c-0.7,0.6-1.4,1.1-1.9,1.9c-1.9,2.2-2.9,4.8-2.7,7.2c0.3,3,2.4,5.5,5.1,6
			c0.1,0,0.2,0,0.2,0c0.4,0,0.6-0.1,0.8-0.4c0.3-0.3,0.4-0.7,0.3-1.1c-0.6-2.2-1-4.2-0.4-5.9c0.4-0.8,1-1.6,1.8-2.2v10.9
			c0,1.9,1.6,3.5,3.4,3.5c1.9,0,3.4-1.6,3.4-3.5v-10.8c0.7,0.7,1.3,1.4,1.6,2.1c0.7,1.9,0.2,4.2-0.4,5.8c-0.1,0.4,0,0.8,0.2,1.1
			s0.6,0.5,0.9,0.5c0.1,0,0.1,0,0.2,0c2.8-0.4,5-3.1,5.2-6.3c0.1-2.5-1-5.1-3.1-7.3c-0.6-0.6-1.1-1.1-1.8-1.6
			c1.6-1.1,3.1-2.5,4.1-4.3c0.4-0.7,0.7-1.4,0.9-2.2c0.8-2.8,0.5-5.8-0.9-8.1c-0.5-0.7-1-1.4-1.6-2l7.1-2.3c1.5-0.5,3.1-1,4.4-2.1
			c2.4-1.9,3.7-5.1,3.1-8.2c-0.3-1.6-1.1-3.1-2.3-4.3c-0.6-0.5-1.1-0.9-1.7-1.3h1.5c2,0,3.9-0.7,5.4-2.2c1-1,2.3-1.5,3.6-1.5h1.5
			c2,0,3.9-0.7,5.4-2.2l1.7-1.7C225.3,73.8,225.5,72.7,225.1,71.6L225.1,71.6z M193.1,86.8c0.5,0.7,1.1,1.2,1.9,1.6
			c1.4,0.7,3.1,0.7,4.6,0.2c0.2-0.1,0.5-0.2,0.6-0.2c0.6-0.2,1-0.4,1.5-0.4c0.5,0,1,0.5,1.1,0.9c0.1,0.6-0.1,1.1-0.6,1.5
			c-0.4,0.3-0.9,0.5-1.5,0.7l-11.5,3.8v-8.1L193.1,86.8L193.1,86.8z M182,61.8c0-2.2,1.8-4,4-4c2.2,0,4,1.8,4,4
			c0,1.6-0.8,2.9-2.2,3.6c-0.4,0.2-0.6,0.7-0.6,1v29.3l-2.2,0.7c0-0.1,0.1-0.3,0.1-0.4V66.5c0-0.5-0.3-0.8-0.6-1
			C182.9,64.8,182,63.4,182,61.8z M175.3,79.7c-1.7-0.3-3.2,0.1-4.7,0.6c-0.8-0.3-1.7-0.5-2.6-0.5h-3.1c-1.4,0-2.7-0.6-3.6-1.5
			c-1.4-1.4-3.3-2.2-5.4-2.2h-1.5c-1.4,0-2.7-0.6-3.6-1.5l-1.7-1.7c0,0-0.1-0.1-0.1-0.3c0.1-0.2,0.2-0.2,0.2-0.2h2.1
			c6.4,0,12.8-0.8,19-2.6c4.1-1.1,8.5-0.2,11.9,2.5c0.1,0.1,0.2,0.1,0.3,0.2v12h-3c0-0.1,0-0.2,0-0.3
			C179.5,81.8,177.3,80,175.3,79.7L175.3,79.7z M169.2,90.2c-0.3-0.3-0.3-0.8-0.2-1.2c0.1-0.4,0.4-0.8,0.7-0.9
			c0.6-0.2,1.3,0,2.1,0.3c0.4,0.1,0.8,0.3,1.3,0.4c1.5,0.3,3,0.1,4.2-0.7c0.6-0.3,1-0.7,1.4-1.2h3.9v8.1c-4-1.2-7.9-2.6-11.8-4
			C170.2,90.8,169.5,90.5,169.2,90.2z M186,134.5c-0.6,0-1.1-0.5-1.1-1.1V121c0,0,0,0,0.1,0c0.6-0.4,1.4-0.7,2-1h0.1v13.6
			C187,134,186.6,134.5,186,134.5z M192.4,120.2c1.6,1.7,2.5,3.7,2.4,5.5c-0.1,1.1-0.6,2.2-1.2,2.9c0.3-1.5,0.3-3.2-0.4-4.8
			c-0.6-1.6-1.9-2.9-3.8-4.1v-1c0.3-0.1,0.5-0.3,0.7-0.4C191,118.9,191.8,119.6,192.4,120.2L192.4,120.2z M194.4,103.6
			c1,1.7,1.3,4,0.6,6.2c-0.2,0.6-0.5,1.1-0.7,1.7c-1.8,3-5.2,4.7-8.4,6.4c-0.6,0.4-1.4,0.7-2.1,1c-2,1.1-4.3,2.5-5.3,5
			c-0.6,1.6-0.6,3.2-0.4,4.8c-0.6-0.7-1.1-1.7-1.2-2.7c-0.2-1.8,0.6-3.7,2-5.4c1.4-1.6,3.3-2.8,5.2-3.8c0.4-0.2,0.8-0.5,1.2-0.7
			c1.7-0.8,3.3-1.8,4.8-3c0.8-0.7,1.9-1.6,2.6-3c1-2.2,0.5-5-1.4-6.5c-0.6-0.6-1.3-0.9-1.9-1.2l2.6-0.8
			C193.1,102,193.9,102.7,194.4,103.6z M189.4,104.8c0.2,0.1,0.4,0.3,0.6,0.4c1,0.9,1.4,2.6,0.8,3.8c-0.3,0.6-0.6,1.1-1.4,1.7V104.8
			L189.4,104.8z M186,103.4c0.1,0,0.2,0.1,0.3,0.1c0.3,0.1,0.6,0.2,0.8,0.3v8.5c-0.7,0.5-1.4,0.8-2.1,1.2v-9.8h0.1L186,103.4z
			 M182.5,110.9c-0.5-0.3-0.8-0.6-1.1-0.9c-1-1.2-0.9-3.4,0.2-4.5c0.3-0.3,0.6-0.6,0.9-0.7V110.9L182.5,110.9z M207.2,88.2
			c0.4,2.2-0.5,4.5-2.2,5.8c-1.1,0.8-2.4,1.3-3.8,1.7l-16.9,5.6c-1.4,0.5-3.1,1-4.4,2.4c-1.9,2.1-2,5.5-0.3,7.7
			c0.8,1,1.9,1.7,2.9,2.2c0,0,0,0,0.1,0v1.1c-0.4,0.2-0.7,0.5-1.1,0.7c-0.3-0.2-0.6-0.3-0.7-0.5c-2.7-1.8-4.1-3.9-4.3-6.4
			c-0.2-2.9,0.7-5.3,2.7-6.9c1.5-1.2,3.3-1.8,5.2-2.4l17.4-5.8c0.6-0.2,1.5-0.5,2.2-1.1c1.1-0.9,1.7-2.5,1.3-4
			c-0.4-1.5-1.8-2.6-3.2-2.7c-0.9-0.1-1.8,0.2-2.4,0.5c-0.2,0.1-0.4,0.1-0.6,0.2c-1.1,0.4-2.1,0.3-3-0.1c-0.8-0.4-1.4-1.2-1.4-2
			c0-0.9,0.9-2.1,2.5-2.2c0.8-0.1,1.7,0,2.4,0.4c0.2,0.1,0.4,0.2,0.6,0.3c0.4,0.2,0.7,0.4,1.1,0.6c0.5,0.2,0.8,0.3,1.3,0.4
			c0.2,0,0.4,0.1,0.6,0.1c0.9,0.3,1.9,0.7,2.6,1.5C206.5,86.1,207,87.1,207.2,88.2L207.2,88.2z"/>
	</g>
	<path class="st3" d="M390.5,241.8h-0.2c-0.6-0.4-1.3-0.8-1.9-1.2c0.4,0,0.7,0.1,0.9,0.4l0.9-0.2L390.5,241.8L390.5,241.8z"/>
	<path class="st4" d="M380.4,220.4l-0.4-1.9l-0.7,0.2l-0.7,0.2l0.4,1.9c0.3-0.1,0.6-0.2,0.8-0.2
		C380.1,220.4,380.2,220.4,380.4,220.4L380.4,220.4L380.4,220.4z"/>
	<g>
		<path class="st5" d="M31,176.2l8.1-8.2l3.3,3.4l-8.1,8.2L31,176.2z"/>
		<path class="st6" d="M31,176.2l3.4-3.5l3.3,3.4l-3.4,3.5L31,176.2z"/>
		<path class="st7" d="M39.3,168.1l-3.2-3.3c-2.2-2.2-5.9-2.2-8.1,0l0,0c-2.2,2.2-2.2,6,0,8.2l3.2,3.3L39.3,168.1z"/>
		<path class="st5" d="M31.9,170.2c-1.9-1.9-2.2-4.8-0.9-7c-1.1,0.2-2.2,0.7-3.1,1.6l0,0c-2.2,2.2-2.2,6,0,8.2l3.2,3.3l3.4-3.5
			L31.9,170.2z"/>
		<path class="st8" d="M42.4,171.2l-8.1,8.2l3.2,3.3c2.2,2.2,5.9,2.2,8.1,0c2.2-2.2,2.2-6,0-8.2L42.4,171.2z"/>
		<path class="st7" d="M41.6,179.9l-3.9-3.9l-3.4,3.5l3.2,3.3c2.2,2.2,5.9,2.2,8.1,0c0.4-0.4,0.7-0.8,0.9-1.3
			C44.9,181.8,43,181.3,41.6,179.9L41.6,179.9z"/>
	</g>
	<g>
		<path class="st9" d="M261.1,121.1l11.9-9.2l3.8,5.1l-11.9,9.2L261.1,121.1z"/>
		<path class="st9" d="M261.1,121.1l5.4-4.2l3.8,5.1l-5.4,4.2L261.1,121.1z"/>
		<path class="st2" d="M264.7,126l3.8,5c2.6,3.5,7.4,4.1,10.6,1.6l0,0c3.2-2.5,3.8-7.4,1.2-10.8l-3.8-5L264.7,126z"/>
		<path class="st2" d="M273.9,126.9l-3.8-5l-5.4,4.2l3.8,5c2.6,3.5,7.4,4.1,10.6,1.6l0,0c0.9-0.7,1.7-1.7,2.2-2.8
			C278.6,130.3,275.7,129.2,273.9,126.9z"/>
		<path class="st2" d="M273,112.2l-3.8-5c-2.6-3.5-7.4-4.1-10.6-1.6l0,0c-3.2,2.5-3.8,7.4-1.2,10.8l3.8,5L273,112.2z"/>
		<path class="st2" d="M262.8,112.2c-1.9-2.4-2-5.5-0.9-8c-1.1,0.2-2.2,0.7-3.2,1.4l0,0c-3.2,2.5-3.8,7.4-1.2,10.8l3.8,5l5.4-4.2
			L262.8,112.2L262.8,112.2z"/>
	</g>
	<g>
		<path class="st10" d="M154.1,19.2l6.9,12.7l-5.1,2.8L149,22L154.1,19.2z"/>
		<path class="st11" d="M154.1,19.2l3.1,5.8l-5.1,2.8L149,22L154.1,19.2z"/>
		<path class="st12" d="M160.7,32l5.1-2.8c3.4-1.9,4.7-6.4,2.9-9.8l0,0c-1.9-3.5-6.3-4.8-9.7-2.9l-5.1,2.8L160.7,32L160.7,32z"/>
		<path class="st13" d="M162,22.2c2.4-1.3,5.3-1.1,7.5,0.4c0-1.1-0.3-2.2-0.8-3.3l0,0c-1.9-3.5-6.3-4.8-9.7-2.9l-5.1,2.8L157,25
			L162,22.2z"/>
		<path class="st13" d="M141.2,34.4c1.9,3.5,6.3,4.8,9.7,2.9l5.1-2.8l-6.9-12.7l-5.1,2.8C140.6,26.5,139.3,30.9,141.2,34.4z"/>
		<path class="st10" d="M147.2,30.4l5.1-2.8l-3.1-5.8l-5.1,2.8c-3.4,1.9-4.7,6.4-2.9,9.8l0,0c0.6,1,1.4,1.9,2.2,2.5
			C143.4,34.3,144.8,31.8,147.2,30.4z"/>
	</g>
	<g>
		<g>
			<path class="st14" d="M207.1,117.2l8.3,2.2l8.3-2.2c-0.3-3.1-2.5-3.9-2.5-9l-6.5-1.8l-5.3,1.8C209.5,113.3,207.4,114,207.1,117.2
				L207.1,117.2z"/>
		</g>
		<g>
			<path class="st14" d="M223.9,127.6l-8.4-0.8l-8.4,0.8v1.6c0,1.5,1.2,2.6,2.6,2.6h11.6c1.5,0,2.6-1.2,2.6-2.6L223.9,127.6
				L223.9,127.6z"/>
		</g>
		<g>
			<path class="st15" d="M209.3,104.7h12.3c0.5,0,0.8,0.4,0.8,0.8v1.8c0,0.5-0.4,0.8-0.8,0.8h-12.3c-0.5,0-0.8-0.4-0.8-0.8v-1.8
				C208.4,105.1,208.9,104.7,209.3,104.7z"/>
		</g>
		<g>
			<path class="st15" d="M223.9,117.2h-16.8c0,0.2,0,0.4,0,0.7v9.7h16.8v-9.7C223.9,117.6,223.9,117.4,223.9,117.2L223.9,117.2z
				 M214.3,119.5c0-0.1,0.1-0.2,0.2-0.2h1.9c0.1,0,0.2,0.1,0.2,0.2v1.8h1.8c0.1,0,0.2,0.1,0.2,0.2v2c0,0.1-0.1,0.2-0.2,0.2h-1.8v1.8
				c0,0.1-0.1,0.2-0.2,0.2h-1.9c-0.1,0-0.2-0.1-0.2-0.2v-1.8h-1.8c-0.1,0-0.2-0.1-0.2-0.2v-2c0-0.1,0.1-0.2,0.2-0.2h1.8V119.5
				L214.3,119.5z"/>
		</g>
		<g>
			<path class="st16" d="M216.4,119.3h-1.9c-0.1,0-0.2,0.1-0.2,0.2v1.8h-1.8c-0.1,0-0.2,0.1-0.2,0.2v2c0,0.1,0.1,0.2,0.2,0.2h1.8
				v1.8c0,0.1,0.1,0.2,0.2,0.2h1.9c0.1,0,0.2-0.1,0.2-0.2v-1.8h1.8c0.1,0,0.2-0.1,0.2-0.2v-2c0-0.1-0.1-0.2-0.2-0.2h-1.8v-1.8
				C216.6,119.4,216.5,119.3,216.4,119.3z"/>
		</g>
		<g>
			<path class="st16" d="M215.4,119.3H215c0.3,0.8,0.5,2,0.5,3.2c0,1.1-0.2,2.2-0.4,3h1.3c0.1,0,0.2-0.1,0.2-0.2v-1.8h1.8
				c0.1,0,0.2-0.1,0.2-0.2v-2c0-0.1-0.1-0.2-0.2-0.2h-1.8v-1.8c0-0.1-0.1-0.2-0.2-0.2L215.4,119.3L215.4,119.3z"/>
		</g>
		<g>
			<path class="st17" d="M219.1,110.7c0.6,3,2,3.9,2.2,6.5h2.4c-0.3-3.1-2.5-3.9-2.5-9h-2.1h-0.3h-9.4c0,0.7,0,1.2-0.1,1.8h7.9
				C218.5,109.9,219,109.7,219.1,110.7z"/>
		</g>
		<path d="M217,125.3v-1.4h1.4c0.3,0,0.6-0.3,0.6-0.6v-2c0-0.3-0.3-0.6-0.6-0.6H217v-1.4c0-0.3-0.3-0.6-0.6-0.6h-1.9
			c-0.3,0-0.6,0.3-0.6,0.6v1.4h-1.4c-0.3,0-0.6,0.3-0.6,0.6v2c0,0.3,0.3,0.6,0.6,0.6h1.4v1.4c0,0.3,0.3,0.6,0.6,0.6h1.9
			C216.7,125.9,217,125.6,217,125.3L217,125.3z M216.2,123.5v1.5h-1.4v-1.5c0-0.2-0.2-0.4-0.4-0.4h-1.5v-1.4h1.5
			c0.2,0,0.4-0.2,0.4-0.4v-1.5h1.4v1.5c0,0.2,0.2,0.4,0.4,0.4h1.5v1.4h-1.5C216.4,123.1,216.2,123.3,216.2,123.5z"/>
		<path d="M221.7,108.6c0.6-0.1,1.1-0.6,1.1-1.2v-1.8c0-0.7-0.6-1.2-1.2-1.2h-12.3c-0.6,0-1.2,0.6-1.2,1.2v1.8
			c0,0.7,0.5,1.2,1.1,1.2c-0.1,2.6-0.7,3.9-1.4,5.2c-0.6,1.1-1.1,2.2-1.1,4v11.3c0,1.7,1.4,3.1,3.1,3.1h11.6c1.7,0,3.1-1.4,3.1-3.1
			v-11.3c0-1.8-0.6-2.8-1.1-4C222.5,112.5,221.8,111.2,221.7,108.6L221.7,108.6z M208.9,107.4v-1.8c0-0.3,0.2-0.5,0.5-0.5h12.3
			c0.3,0,0.5,0.2,0.5,0.5v1.8c0,0.3-0.2,0.5-0.5,0.5h-12.3C209.1,107.8,208.9,107.6,208.9,107.4z M221.2,131.3h-11.6
			c-1.2,0-2.2-1-2.2-2.2V128h6.9c0.2,0,0.4-0.2,0.4-0.4c0-0.2-0.2-0.4-0.4-0.4h-6.9v-9.4c0.1-0.1,0.2-0.2,0.3-0.3h6.7
			c0.2,0,0.4-0.2,0.4-0.4c0-0.2-0.2-0.4-0.4-0.4h-6.8c0.2-1,0.6-1.8,0.9-2.5c0.6-1.3,1.4-2.8,1.5-5.6h11c0.1,2.8,0.8,4.3,1.5,5.6
			c0.4,0.8,0.8,1.6,0.9,2.5h-6.9c-0.2,0-0.4,0.2-0.4,0.4c0,0.2,0.2,0.4,0.4,0.4h6.9c0.1,0.1,0.2,0.2,0.3,0.3v9.4h-7.2
			c-0.2,0-0.4,0.2-0.4,0.4c0,0.2,0.2,0.4,0.4,0.4h7.2v2C223.4,131.2,222.2,131.9,221.2,131.3L221.2,131.3z"/>
	</g>
	<g>
		<g>
			<path class="st14" d="M94.3,44.4l8.7,0.8l7-5.2c-1.5-4.4-3.8-4.9-5.8-12.2l-6.8-0.7l-4.3,3.8C95.1,38.1,93.3,39.8,94.3,44.4
				L94.3,44.4z"/>
		</g>
		<g>
			<path class="st14" d="M114.1,54.7l-8.1,1l-7.5,3.4l0.6,2.2c0.6,2.1,2.1,3.5,3.5,3.1l10.8-3c1.4-0.4,2-2.4,1.4-4.5L114.1,54.7
				L114.1,54.7z"/>
		</g>
		<g>
			<path class="st16" d="M91.5,26.1l11.6-3.3c0.5-0.1,0.9,0.3,1.1,1l0.7,2.5c0.2,0.7,0,1.3-0.5,1.4L92.9,31c-0.5,0.1-0.9-0.3-1.1-1
				L91,27.5C90.8,26.8,91,26.2,91.5,26.1z"/>
		</g>
		<g>
			<path class="st16" d="M110,40l-15.6,4.4c0.1,0.3,0.1,0.6,0.2,0.9l3.8,13.8l15.7-4.4L110.3,41C110.2,40.6,110.1,40.3,110,40
				L110,40z M102,45.7c0-0.1,0-0.3,0.1-0.3l1.8-0.5c0.1,0,0.2,0.1,0.2,0.2l0.7,2.5l1.7-0.5c0.1,0,0.2,0.1,0.2,0.2l0.7,2.7
				c0,0.1,0,0.3-0.1,0.3l-1.7,0.5l0.7,2.5c0,0.1,0,0.3-0.1,0.3l-1.8,0.5c-0.1,0-0.2-0.1-0.2-0.2l-0.7-2.5l-1.7,0.5
				c-0.1,0-0.2-0.1-0.2-0.2L101,49c0-0.1,0-0.3,0.1-0.3l1.7-0.5L102,45.7L102,45.7z"/>
		</g>
		<g>
			<path class="st15" d="M103.5,45.1l-2.1,0.6c-0.1,0-0.2,0.2-0.1,0.3l0.7,2.5l-1.9,0.6c-0.1,0-0.2,0.2-0.1,0.3l0.7,2.7
				c0,0.1,0.2,0.2,0.3,0.2l1.9-0.6l0.7,2.5c0,0.1,0.2,0.2,0.3,0.2l2.1-0.6c0.1,0,0.2-0.2,0.1-0.3l-0.7-2.5l1.9-0.6
				c0.1,0,0.2-0.2,0.1-0.3l-0.7-2.7c0-0.1-0.2-0.2-0.3-0.2l-1.9,0.6l-0.7-2.5C103.7,45.2,103.6,45.1,103.5,45.1z"/>
		</g>
		<g>
			<path class="st15" d="M103.1,45.2l-0.6,0.2c0.6,1.1,1.3,2.6,1.9,4.4c0.5,1.6,0.6,3.1,0.6,4.3l1.7-0.5c0.1,0,0.2-0.2,0.2-0.3
				l-0.7-2.5l2.2-0.7c0.1,0,0.2-0.2,0.2-0.3l-0.7-2.7c0-0.1-0.2-0.2-0.3-0.2l-2.2,0.7l-0.7-2.5c0-0.1-0.2-0.2-0.3-0.2L103.1,45.2
				L103.1,45.2z"/>
		</g>
		<g>
			<path class="st17" d="M103,32c1.7,4.1,3.4,5.1,4.6,8.6l2.2-0.7c-1.5-4.4-3.8-4.9-5.8-12.2l-1.9,0.6l-0.3,0.1L93,30.8
				c0.3,0.9,0.5,1.8,0.6,2.5l7.4-2.1C102.1,31.1,102.5,30.7,103,32z"/>
		</g>
		<path d="M107.4,53.1l-0.6-2l1.9-0.5c0.5-0.1,0.6-0.6,0.6-1l-0.7-2.7c-0.1-0.5-0.6-0.7-1-0.6l-1.9,0.5l-0.6-2
			c-0.1-0.5-0.6-0.7-1-0.6l-2.6,0.7c-0.5,0.1-0.6,0.6-0.6,1l0.6,2l-1.9,0.5c-0.5,0.1-0.6,0.6-0.6,1l0.7,2.7c0.1,0.5,0.6,0.7,1,0.6
			l1.9-0.5l0.6,2c0.1,0.5,0.6,0.7,1,0.6l2.6-0.7C107.2,54.1,107.5,53.6,107.4,53.1L107.4,53.1z M105.5,51l0.6,2.2l-1.9,0.6l-0.6-2.2
			c-0.1-0.3-0.4-0.5-0.7-0.5l-2,0.6l-0.6-2.1l2-0.6c0.3-0.1,0.5-0.4,0.4-0.7l-0.6-2.2l1.9-0.6l0.6,2.2c0.1,0.3,0.4,0.5,0.7,0.5
			l2-0.6l0.6,2.1l-2,0.6C105.6,50.3,105.5,50.6,105.5,51z"/>
		<path d="M104.7,28.3c0.6-0.3,0.8-1.1,0.6-2.1l-0.7-2.5c-0.3-1-1-1.7-1.7-1.5l-11.6,3.3c-0.6,0.2-0.9,1.1-0.6,2.2l0.7,2.5
			c0.3,0.9,0.9,1.6,1.5,1.5c0.9,3.7,0.8,5.8,0.7,7.9c-0.1,1.8-0.2,3.5,0.6,6l4.4,16c0.6,2.4,2.5,4,4.1,3.6l10.8-3
			c1.6-0.5,2.3-2.8,1.7-5.1l-4.4-16c-0.6-2.5-1.6-3.9-2.6-5.4C106.9,33.7,105.7,32,104.7,28.3L104.7,28.3z M92.1,29.9l-0.7-2.5
			c-0.1-0.4,0-0.7,0.3-0.7l11.6-3.3c0.2-0.1,0.5,0.2,0.6,0.6l0.7,2.5c0.1,0.4,0,0.7-0.3,0.7l-11.6,3.3
			C92.5,30.5,92.2,30.3,92.1,29.9z M113,60.8l-10.7,3.1c-1.1,0.3-2.5-0.8-3-2.6l-0.5-1.6l6.5-1.8c0.2-0.1,0.3-0.4,0.2-0.7
			c-0.1-0.3-0.4-0.6-0.6-0.5l-6.5,1.8l-3.6-13.4C95,45,95,44.9,95,44.8l6.3-1.8c0.2-0.1,0.3-0.4,0.2-0.7c-0.1-0.3-0.4-0.6-0.6-0.5
			l-6.4,1.8c-0.3-1.5-0.2-2.6-0.1-3.9c0.1-2.1,0.2-4.4-0.8-8.3l10.3-2.9c1.1,3.9,2.4,5.9,3.6,7.6c0.7,1,1.4,2.1,1.9,3.4l-6.5,1.9
			c-0.2,0.1-0.3,0.4-0.2,0.7s0.4,0.6,0.6,0.5l6.4-1.8c0.1,0.1,0.2,0.2,0.3,0.3l3.6,13.3l-6.8,1.9c-0.2,0.1-0.3,0.4-0.2,0.7
			c0.1,0.3,0.4,0.6,0.6,0.5l6.8-1.9l0.7,2.8C115.1,59.9,114.2,61.3,113,60.8L113,60.8z"/>
	</g>
	<g>
		<g>
			<path class="st18" d="M140.9,93.2l4-0.2l0,0l-0.2-3.9c-0.1-1.1-1-2-2.1-2c-1.1,0.1-1.9,1-1.9,2.2L140.9,93.2L140.9,93.2z"/>
		</g>
		<g>
			<path class="st14" d="M144.9,93.8L141,94l0.6,13.5c0,0.6,0.3,1.1,0.7,1.5l0.1,1.1c0.1,1.8,2.7,1.6,2.6-0.1l-0.1-1.1
				c0.4-0.4,0.6-0.9,0.6-1.5C145.3,103,145.1,98.1,144.9,93.8L144.9,93.8z"/>
		</g>
		<g>
			<path class="st19" d="M145.6,94.5c0.6,0,1.1-0.6,1-1.2c0-0.7-0.6-1.1-1.2-1c-1.8,0.1-3.5,0.2-5.3,0.3c-0.6,0-1.1,0.6-1,1.2
				c0,0.7,0.6,1.1,1.2,1L145.6,94.5z"/>
		</g>
		<g>
			<path class="st17" d="M144.5,94.5h-0.6l0.1,2.5l0.2,2.9l0.2,2.9l0.2,2.9l0.1,1.7c0,0.6-0.2,1.1-0.6,1.5l0.1,1.1
				c0,0.7-0.3,1-0.7,1.2c0.7,0.3,1.8-0.2,1.8-1.3l-0.1-1.1c0.4-0.4,0.6-0.9,0.6-1.5L145,94.5H144.5z"/>
		</g>
		<g>
			<path class="st20" d="M145.1,93.4c0,0.3-0.1,0.5-0.2,0.7c-0.2,0.3-0.5,0.5-0.8,0.5h0.5h0.4h0.6c0.6,0,1.1-0.6,1-1.2
				c0-0.7-0.6-1.1-1.2-1h-0.6c-0.4,0-0.6,0-1,0.1c0.5,0,0.8,0.2,1,0.6C145,93,145.1,93.2,145.1,93.4L145.1,93.4z"/>
		</g>
		<g>
			<path class="st21" d="M143.6,89.1l0.2,3.2l0,0h0.1l1-0.1l-0.2-3.3c-0.1-1.1-1-2-2.1-2c-0.2,0-0.4,0.1-0.6,0.1
				C142.8,87.4,143.5,88.1,143.6,89.1z"/>
		</g>
		<g>
			<path class="st22" d="M143.7,113.8c-0.6,0.9-1.9,2.9-1.8,3.9c0.1,1.4,1.2,2.1,2.2,2c1-0.1,2.1-0.8,2-2.2
				c-0.1-1.1-1.5-2.9-2.1-3.7C143.9,113.5,143.9,113.5,143.7,113.8L143.7,113.8z"/>
		</g>
		<g>
			<path class="st15" d="M144.7,116.7c0,0.4,0,0.7-0.2,1c-0.3,0.7-1.1,1.2-1.9,1.2c-0.1,0-0.2,0-0.3,0c0.5,0.6,1.1,0.7,1.8,0.7
				c1-0.1,1.9-0.7,2-1.9c0-0.1,0-0.2,0-0.4c-0.1-1.1-1.5-2.9-2.1-3.7c-0.2-0.2-0.2-0.2-0.4,0c-0.1,0.1-0.2,0.3-0.3,0.5
				C144,115.1,144.7,116,144.7,116.7z"/>
		</g>
		<path d="M145.4,91.7L145.4,91.7l-0.2-2.7c-0.1-1.4-1.3-2.4-2.7-2.4c-1.4,0.1-2.5,1.3-2.4,2.7l0.2,2.7h-0.2c-0.9,0-1.6,0.8-1.5,1.7
			c0,0.9,0.8,1.6,1.7,1.5h0.2l0.6,12.3c0,0.7,0.3,1.2,0.7,1.7l0.1,0.9c0.1,1.2,1,1.8,1.9,1.7c0.9,0,1.8-0.7,1.7-1.9l-0.1-0.9
			c0.4-0.5,0.6-1.1,0.6-1.8l-0.6-12.3h0.2c0.9,0,1.6-0.8,1.5-1.7C147.1,92.3,146.4,91.7,145.4,91.7L145.4,91.7z M141.2,89.1
			c0-0.8,0.6-1.6,1.5-1.6c0.8,0,1.6,0.7,1.6,1.5l0.2,2.7l-3.1,0.2L141.2,89.1L141.2,89.1z M144.5,96.5h-0.8c-0.3,0-0.5,0.3-0.5,0.6
			c0,0.3,0.3,0.5,0.6,0.5h0.8l0.1,1.9h-0.8c-0.3,0-0.5,0.3-0.5,0.6c0,0.3,0.3,0.5,0.6,0.5h0.8l0.1,1.9H144c-0.3,0-0.5,0.3-0.5,0.6
			c0,0.3,0.3,0.5,0.6,0.5h0.8l0.1,1.9h-0.8c-0.3,0-0.5,0.3-0.5,0.6c0,0.3,0.3,0.5,0.6,0.5h0.8l0.1,1.1c0,0.5-0.2,0.8-0.5,1.1
			c-0.1,0.1-0.2,0.3-0.2,0.4l0.1,1.1c0,0.6-0.4,0.8-0.7,0.8s-0.8-0.2-0.8-0.7L143,109c0-0.2-0.1-0.3-0.2-0.4
			c-0.4-0.3-0.6-0.7-0.6-1.1l-0.6-12.3l3-0.2L144.5,96.5L144.5,96.5z M145.5,93.9l-5.3,0.3c-0.4,0-0.6-0.3-0.6-0.6
			c0-0.4,0.3-0.7,0.6-0.7l4.6-0.3l0,0l0,0h0.6c0.4,0,0.6,0.3,0.6,0.6C146.2,93.6,145.9,93.9,145.5,93.9z"/>
		<path d="M144.4,113.4c-0.1-0.1-0.3-0.4-0.6-0.4s-0.5,0.3-0.6,0.4c-0.1,0.1-0.2,0.3-0.2,0.4c-0.8,1.4-1.7,2.8-1.6,3.8
			c0.1,1.7,1.5,2.5,2.8,2.4s2.6-1,2.5-2.7c-0.1-1-1-2.3-1.9-3.6C144.6,113.7,144.5,113.5,144.4,113.4L144.4,113.4z M144.1,119.2
			c-0.8,0-1.7-0.4-1.7-1.5c0-0.7,0.9-2.4,1.5-3.3l0,0l0,0c0.6,0.8,1.8,2.3,1.8,3.1C145.8,118.5,145,119.1,144.1,119.2L144.1,119.2z"
			/>
	</g>
	<g>
		<path class="st23" d="M86.8,129.9l14.9,0.5l-0.2,6.1L86.6,136L86.8,129.9z"/>
		<path class="st23" d="M86.8,129.9l6.8,0.2l-0.2,6.1l-6.8-0.2L86.8,129.9z"/>
		<path class="st24" d="M86.6,135.8l-0.2,6.1c-0.1,4.1,3.1,7.7,7.2,7.8l0,0c4.1,0.1,7.6-3.2,7.7-7.3l0.2-6.1L86.6,135.8z"/>
		<path class="st25" d="M93.1,142.1l0.2-6.1l-6.8-0.2l-0.2,6.1c-0.1,4.1,3.1,7.7,7.2,7.8l0,0c1.2,0,2.4-0.2,3.4-0.7
			C94.7,147.6,93.1,145,93.1,142.1z"/>
		<path class="st24" d="M101.7,130.7l0.2-6.1c0.1-4.1-3.1-7.7-7.2-7.8l0,0c-4.1-0.1-7.6,3.2-7.7,7.3l-0.2,6.1L101.7,130.7z"/>
		<path class="st25" d="M93.7,124.4c0.1-2.9,1.9-5.4,4.3-6.5c-1-0.6-2.1-0.9-3.3-0.9l0,0c-4.1-0.1-7.6,3.2-7.7,7.3l-0.2,6.1l6.8,0.2
			L93.7,124.4L93.7,124.4z"/>
	</g>
	<g>
		<path class="st12" d="M164.7,130.6h0.3l3.4-2.8v-0.2c-1-0.8-2.7-0.8-3.7,0C163.7,128.4,163.7,129.8,164.7,130.6L164.7,130.6z"/>
		<path class="st10" d="M164.2,128.4c-0.3,0.7-0.1,1.6,0.6,2.2h0.3l1-0.8C165.2,129.7,164.5,129.1,164.2,128.4z"/>
		<g>
			<path class="st10" d="M154.6,126.8V124h1.4v2.7H154.6z"/>
			<path class="st11" d="M154.6,126.8v-1.2h1.4v1.2H154.6z"/>
			<path class="st12" d="M154.7,124h-1.4c-0.9,0-1.7,0.7-1.7,1.4l0,0c0,0.7,0.7,1.4,1.7,1.4h1.4V124L154.7,124z"/>
			<path class="st13" d="M153.3,125.5c-0.6,0-1.2-0.3-1.5-0.7c-0.1,0.2-0.2,0.4-0.2,0.7l0,0c0,0.7,0.7,1.4,1.7,1.4h1.4v-1.2
				L153.3,125.5z"/>
			<path class="st13" d="M158.9,125.4c0-0.7-0.7-1.4-1.7-1.4h-1.4v2.7h1.4C158.2,126.8,158.9,126.2,158.9,125.4z"/>
			<path class="st10" d="M157.2,125.5h-1.4v1.2h1.4c0.9,0,1.7-0.7,1.7-1.4l0,0c0-0.2-0.1-0.5-0.2-0.7
				C158.4,125.3,157.9,125.5,157.2,125.5z"/>
		</g>
		<g>
			<path class="st26" d="M157.6,130.7V128h1.4v2.7H157.6z"/>
			<path class="st27" d="M157.6,130.7v-1.2h1.4v1.2H157.6z"/>
			<path class="st28" d="M158.9,130.7h1.4c0.9,0,1.7-0.7,1.7-1.4l0,0c0-0.7-0.7-1.4-1.7-1.4h-1.4V130.7z"/>
			<path class="st26" d="M160.3,129.5h-1.4v1.2h1.4c0.9,0,1.7-0.7,1.7-1.4l0,0c0-0.2-0.1-0.5-0.2-0.7
				C161.5,129.2,160.9,129.5,160.3,129.5z"/>
			<path class="st29" d="M157.7,128h-1.4c-0.9,0-1.7,0.7-1.7,1.4l0,0c0,0.7,0.7,1.4,1.7,1.4h1.4V128z"/>
			<path class="st28" d="M156.3,129.5c-0.6,0-1.2-0.3-1.5-0.7c-0.1,0.2-0.2,0.4-0.2,0.7l0,0c0,0.7,0.7,1.4,1.7,1.4h1.4v-1.2
				L156.3,129.5L156.3,129.5z"/>
		</g>
		<g>
			<path class="st5" d="M164.6,125.4l-2.4-2l1-0.8l2.4,2L164.6,125.4z"/>
			<path class="st6" d="M164.6,125.4l-1-0.8l1-0.8l1,0.8L164.6,125.4z"/>
			<path class="st7" d="M162.2,123.5l-0.9,0.7c-0.6,0.6-0.6,1.4,0,2l0,0c0.6,0.6,1.8,0.6,2.4,0l0.9-0.7L162.2,123.5z"/>
			<path class="st5" d="M162.8,125.2c-0.6,0.5-1.4,0.6-2,0.2c0.1,0.3,0.2,0.6,0.5,0.7l0,0c0.6,0.6,1.8,0.6,2.4,0l0.9-0.7l-1-0.8
				L162.8,125.2z"/>
			<path class="st8" d="M163.1,122.7l2.4,2l0.9-0.7c0.6-0.6,0.6-1.4,0-2c-0.6-0.6-1.8-0.6-2.4,0L163.1,122.7z"/>
			<path class="st7" d="M165.6,122.9l-1.1,0.9l1,0.8l0.9-0.7c0.6-0.6,0.6-1.4,0-2c-0.1-0.1-0.3-0.2-0.4-0.2
				C166.1,122.2,165.9,122.6,165.6,122.9L165.6,122.9z"/>
		</g>
		<g>
			<path class="st30" d="M156.1,121.8l3.4-2.7l0.1-0.3c-1-0.8-2.7-0.8-3.7,0s-1,2.2,0,3.1L156.1,121.8z"/>
			<path class="st29" d="M155.2,119.6c-0.3,0.7-0.1,1.6,0.6,2.2h0.3l0.9-0.7C156.1,120.9,155.5,120.3,155.2,119.6L155.2,119.6z"/>
			<path class="st29" d="M155.8,121.8c1,0.8,2.7,0.8,3.7,0c1-0.8,1-2.2,0-3.1L155.8,121.8z"/>
			<path class="st28" d="M157.7,121.1c-0.3,0-0.6,0-0.8-0.1l-1,0.8c1,0.8,2.7,0.8,3.7,0c0.7-0.6,0.9-1.5,0.6-2.2
				C159.8,120.5,158.8,121.1,157.7,121.1z"/>
		</g>
		<path class="st10" d="M164.7,130.6c1,0.8,2.7,0.8,3.7,0c1-0.8,1-2.2,0-3.1L164.7,130.6z"/>
		<path class="st11" d="M166.7,129.8c-0.3,0-0.6,0-0.8-0.1l-1.1,0.8c1,0.8,2.7,0.8,3.7,0c0.7-0.6,0.9-1.5,0.6-2.2
			C168.8,129.3,167.8,129.8,166.7,129.8z"/>
	</g>
	<g>
		<g>
			<path class="st31" d="M240.1,19.9H229c-0.6,0-0.9,0.5-0.9,0.9v10.4h-10.3c-0.6,0-0.9,0.5-0.9,0.9v11.2c0,0.6,0.5,1,0.9,1H228
				v10.4c0,0.6,0.5,0.9,0.9,0.9h11.1c0.6,0,0.9-0.5,0.9-0.9V44.4h10.3c0.6,0,1-0.5,1-1V32.2c0-0.6-0.5-0.9-1-0.9H241V20.8
				C241.1,20.4,240.6,19.9,240.1,19.9z"/>
		</g>
		<g>
			<path class="st32" d="M234.5,19.9h-2.6c1.7,5.1,2.6,11.5,2.6,18.6c0,6.5-0.8,12.4-2.2,17.3h7.8c0.6,0,0.9-0.5,0.9-0.9V44.4h10.3
				c0.6,0,1-0.5,1-1V32.2c0-0.6-0.5-0.9-1-0.9H241V20.8c0-0.6-0.5-0.9-0.9-0.9H234.5L234.5,19.9z"/>
		</g>
	</g>
	<g>
		<path class="st33" d="M305.2,74.7c-4.2-4.2-10.9-4.2-15.1,0c-2,2.1-3.1,4.8-3.1,7.6c0,2.9,1.1,5.6,3.1,7.6c2,2.1,4.8,3.2,7.5,3.2
			s5.5-1,7.5-3.2C309.3,85.8,309.3,78.9,305.2,74.7z"/>
		<path class="st34" d="M305.2,86.1c-2,2.1-4.8,3.2-7.5,3.2s-5.5-1-7.5-3.2c-1.6-1.6-2.6-3.6-3-5.7c-0.1,0.7-0.2,1.3-0.2,1.9
			c0,2.9,1.1,5.6,3.1,7.6c2,2.1,4.8,3.2,7.5,3.2s5.5-1,7.5-3.2c2.6-2.6,3.5-6.2,3-9.5C307.7,82.5,306.8,84.5,305.2,86.1z"/>
		<path class="st35" d="M305.2,74.7c-0.2-0.2-0.4-0.4-0.6-0.6l-15,15.2c0.2,0.2,0.4,0.4,0.6,0.6c0.2,0.2,0.4,0.4,0.6,0.6l15-15.2
			C305.5,75.1,305.3,74.9,305.2,74.7z"/>
	</g>
	<g>
		<g>
			<path class="st36" d="M323.3,168.6l7.5-7.6c1.4-1.4,2.2-3.4,2.2-5.3c0-2.1-0.7-3.9-2.2-5.3c-1.4-1.4-3.3-2.2-5.3-2.2l0,0
				c-2,0-3.9,0.7-5.3,2.2l-7.5,7.6l0,0L323.3,168.6z"/>
			<path class="st37" d="M312.7,157.9L312.7,157.9l-7.5,7.6c-1.4,1.4-2.2,3.4-2.2,5.3c0,2.1,0.7,3.9,2.2,5.3
				c1.4,1.4,3.3,2.2,5.3,2.2l0,0c2,0,3.9-0.7,5.3-2.2l7.5-7.6l0,0L312.7,157.9z"/>
			<path class="st38" d="M332.9,155.7c0-2.1-0.7-3.9-2.2-5.3c-0.3-0.3-0.6-0.7-1-0.8c0.8,1.2,1.3,2.7,1.3,4.3c0,2.1-0.7,3.9-2.2,5.3
				l-7.5,7.6l1.9,1.9l7.5-7.6C332.2,159.6,332.9,157.6,332.9,155.7z"/>
		</g>
		<path class="st39" d="M323.3,168.5l-1.9-1.9l0,0l-7.5,7.6c-1.4,1.4-3.3,2.2-5.3,2.2l0,0c-1.6,0-3.1-0.5-4.3-1.3
			c0.3,0.4,0.6,0.7,0.8,1c1.4,1.4,3.3,2.2,5.3,2.2l0,0c2,0,3.9-0.7,5.3-2.2L323.3,168.5L323.3,168.5z"/>
	</g>
	<g>
		<path class="st35" d="M54.2,91.1c-2.7-1.8-6.5-3.1-10.6-3.7s-8.1-0.5-11.2,0.4c-3.4,0.9-5.5,2.7-5.8,5c-0.4,2.2,1.1,4.5,4.1,6.5
			c2.7,1.8,6.5,3.1,10.6,3.7c0.2,0,0.4,0.1,0.6,0.1c3.9,0.6,7.7,0.4,10.6-0.5c3.4-0.9,5.5-2.7,5.8-5C58.6,95.3,57.1,93.1,54.2,91.1z
			"/>
		<path class="st40" d="M53.1,97.9c-3,0.8-6.8,1-10.6,0.5c-0.2,0-0.4-0.1-0.6-0.1c-4.1-0.7-7.9-2-10.6-3.7c-1.9-1.2-3.1-2.6-3.7-4
			c-0.6,0.7-0.8,1.4-0.9,2.2c-0.4,2.2,1.1,4.5,4.1,6.5c2.7,1.8,6.5,3.1,10.6,3.7c0.2,0,0.4,0.1,0.6,0.1c3.9,0.6,7.7,0.4,10.6-0.5
			c3.4-0.9,5.5-2.7,5.8-5c0.1-0.8,0-1.7-0.4-2.5C56.9,96.3,55.3,97.3,53.1,97.9z"/>
		<path class="st40" d="M42.5,87.2l-2.2,15.5c0.3,0.1,0.6,0.1,0.9,0.2c0.2,0,0.4,0.1,0.6,0.1s0.4,0,0.6,0.1l2.2-15.5
			c-0.3-0.1-0.6-0.1-0.9-0.2C43.2,87.3,42.9,87.3,42.5,87.2z"/>
	</g>
	<g>
		<g>
			<path class="st41" d="M255.3,227.6l-8.7,0.6c0,0-15.4-21.6-3.7-44.5c8.6-16.9,24.2-13.2,31.8-10.1c0,0,8.5-0.9,9.9,13.7
				c1.5,14.6-2.8,32.8-12.2,42.3L255.3,227.6z"/>
			<path class="st42" d="M257.8,221.2l-1.6,8.6l-5.5,1.9l3.3,53.2l20.9-0.1l1-54.1l-3.5-1.1l-1.8-8.8L257.8,221.2L257.8,221.2z"/>
			<path class="st43" d="M249.5,246.6c9.1,4.6,18.5,5.6,28.4,0.3l-0.3,39.8c-4.3,1-8.7,1.5-13.2,1.5c-5.2,0-10.3-0.7-15.2-2
				L249.5,246.6z"/>
			<path class="st44" d="M274,230.3l15.9,4.5c4.1,1.3,7.8,3.9,7.9,8.4l0.8,33.6c-3.6,2.6-7.6,4.9-11.7,6.7l-1-18.7l-2.8,20.1
				c-6,2.1-12.4,3.2-19,3.2c-0.2,0-0.3,0-0.5,0v-17.1L274,230.3z"/>
			<g>
				<path class="st2" d="M273.9,230.2l2.1,0.9l7.2,11.1l-8.3-0.2l5.2,2.9L263.9,271L273.9,230.2L273.9,230.2z"/>
				<path class="st2" d="M255.5,230.1l-16,4.2c-4.1,1.2-7.8,3.7-8.1,8.2l-1.4,34.4c3.6,2.6,7.5,4.8,11.5,6.6l1.3-19l2.5,20.5
					c5.8,2,12,3.1,18.5,3.2v-17.1L255.5,230.1L255.5,230.1z"/>
			</g>
			<path class="st44" d="M255.6,230l-2.5,1l-6.9,10.9h8.3l-5.2,2.8l14.5,26.4L255.6,230L255.6,230z"/>
			<path class="st45" d="M286.1,265.4c-2.4-0.4-4-2.7-3.5-5.2c0.4-2.5,2.6-4.1,5-3.7c2.4,0.4,4,2.7,3.5,5.2
				C290.6,264.2,288.4,265.8,286.1,265.4z"/>
			<path class="st46" d="M286.1,265.1c-2.2-0.4-3.7-2.6-3.3-4.9s2.5-3.9,4.7-3.4c2.2,0.4,3.7,2.6,3.3,4.9
				C290.5,264,288.4,265.6,286.1,265.1z"/>
			<path class="st47" d="M286.4,263.3c-1.3-0.3-2-1.4-1.9-2.7c0.3-1.3,1.3-2.1,2.6-1.9c1.3,0.3,2,1.4,1.9,2.7
				C288.8,262.7,287.7,263.5,286.4,263.3L286.4,263.3z"/>
			<path class="st45" d="M286.7,258.9l1,0.2l0.5-3.2l-1-0.2L286.7,258.9L286.7,258.9z"/>
			<path class="st48" d="M253.5,266.3l1.9-0.4c0.8-0.2,1.4-0.6,1.9-1.3c0.4-0.6,0.6-1.5,0.4-2.3l-2.2-11.4c-0.8-4.3-4-6.5-7.8-7
				c-1.4-0.2-3-0.1-4.4,0.2c-1.4,0.3-2.9,0.8-4,1.6c-3.2,1.9-5.4,5.3-4.6,9.5l2.2,11.4c0.2,0.8,0.6,1.5,1.3,1.9l0,0
				c0.6,0.4,1.4,0.6,2.2,0.4l1.9-0.4l-0.2-0.8l-1.9,0.4c-0.6,0.1-1.2,0-1.6-0.4l0,0c-0.4-0.4-0.8-0.8-0.9-1.4l-2.2-11.4
				c-0.8-3.9,1.3-6.9,4.2-8.7c1.2-0.7,2.5-1.2,3.9-1.5c1.3-0.3,2.8-0.4,4.1-0.2c3.4,0.4,6.3,2.5,7.1,6.3l2.2,11.4
				c0.1,0.6,0,1.2-0.3,1.7c-0.3,0.4-0.8,0.8-1.3,1l-1.9,0.4L253.5,266.3L253.5,266.3z"/>
			<path class="st49" d="M256.1,252.6l-0.3-1.8c-0.8-4.5-4.2-6.7-8-7.2c-1.4-0.2-3-0.1-4.5,0.2c-1.4,0.3-2.9,0.9-4.1,1.6
				c-3.4,2-5.6,5.3-4.7,9.8l0.3,1.8l1.3-0.3l-0.3-1.8c-0.8-3.8,1.2-6.7,4-8.4c1.2-0.7,2.4-1.1,3.8-1.4c1.3-0.3,2.7-0.4,4-0.2
				c3.3,0.4,6.2,2.4,6.9,6.1l0.3,1.8L256.1,252.6L256.1,252.6z"/>
			<g>
				<path class="st3" d="M240.7,269.1l1-0.2c0.3,0.3,0.7,0.4,1,0.4c0.6-0.1,1-0.7,0.8-1.3c-0.1-0.6-0.7-1.1-1.3-0.9
					c-0.4,0.1-0.7,0.4-0.8,0.7l-1,0.2L240.7,269.1z"/>
				<path class="st3" d="M254.3,266.3l-1,0.2c-0.1,0.4-0.4,0.7-0.8,0.7c-0.6,0.1-1.2-0.3-1.3-0.9c-0.1-0.6,0.3-1.2,0.8-1.3
					c0.4-0.1,0.8,0.1,1,0.4l1-0.2L254.3,266.3L254.3,266.3z"/>
			</g>
			<path class="st4" d="M243.9,243.8l-0.3-2l-0.8,0.2l-0.8,0.2l0.4,2c0.3-0.1,0.6-0.2,0.8-0.3C243.5,243.8,243.8,243.8,243.9,243.8z
				"/>
			<g>
				<path class="st46" d="M242.3,268c0.2,0,0.3-0.2,0.3-0.4c0-0.2-0.2-0.3-0.4-0.3s-0.3,0.2-0.3,0.4C242,267.9,242.2,268,242.3,268
					L242.3,268z"/>
				<path class="st46" d="M252.1,266c0.2,0,0.3-0.2,0.3-0.4c0-0.2-0.2-0.3-0.4-0.3c-0.2,0-0.3,0.2-0.3,0.4
					C251.8,265.9,251.9,266,252.1,266z"/>
			</g>
			<path class="st45" d="M286.3,263.3c-1.2-0.2-1.9-1.3-1.8-2.5c0.2-1.2,1.3-2,2.4-1.8c1.2,0.2,1.9,1.3,1.8,2.5
				C288.6,262.7,287.4,263.5,286.3,263.3z"/>
			<g>
				<path class="st49" d="M253.1,231.1c0,0-11.7,0.1-9.8,10.8l-1.1,0.2c-2.2-12,10.8-12.1,10.9-12.1V231.1L253.1,231.1z"/>
				<path class="st49" d="M276.5,230c1.9,0.1,5.6,0.6,8.4,4.2c2.8,3.5,4.7,10,3.3,21.8l-1.1-0.2c1.4-11.5-0.4-17.6-3-20.9
					c-2.5-3.2-5.9-3.7-7.6-3.8V230L276.5,230z"/>
			</g>
			<path class="st50" d="M270,186.1c0,0-0.6,2.6-4.3,3.4c-1.8,0.4-3.5,1-5.1,1.7c-4.3,1.8-7.8,5.3-9.7,10c-1.4,3.8-2,7.9-1.6,12
				c0,0,6.4,12.2,14.2,12.1c7.8-0.1,14.2-11.6,15.3-15.6c0,0,2,0.2,3.1-3.2c0.5-1.6,0.8-3.2,0.8-4.8c0-0.4-0.2-0.9-0.4-1.1
				c-0.8-0.9-1.9-1.2-3-0.8C279.2,199.7,272.2,196.6,270,186.1L270,186.1z"/>
		</g>
		<g>
			<path class="st51" d="M102.2,217.9l-1.8,9l-6,2.1l3.5,55.8l22.7-0.1l1.1-56.7l-3.8-1.2l-1.9-9.1L102.2,217.9L102.2,217.9z"/>
			<path class="st52" d="M93.1,244.5c9.9,4.8,20.2,5.8,31,0.3l-0.4,41.6c-4.6,1-9.5,1.6-14.4,1.6c-5.7,0-11.2-0.7-16.5-2.1
				L93.1,244.5z"/>
			<path class="st44" d="M119.9,227.3l17.3,4.7c4.5,1.4,8.5,4,8.6,8.8l1,35.3c-3.9,2.8-8.2,5.1-12.7,6.9l-1.1-19.5l-3,21
				c-6.5,2.2-13.5,3.3-20.7,3.3c-0.2,0-0.4,0-0.6,0l0-17.9L119.9,227.3z"/>
			<g>
				<path class="st2" d="M119.7,227.2l2.3,0.9l7.8,11.7l-9.1-0.1l5.7,3l-17.6,27.4L119.7,227.2L119.7,227.2z"/>
				<path class="st2" d="M99.6,227.1l-17.4,4.4c-4.5,1.3-8.6,3.9-8.8,8.7l-1.6,36c3.9,2.7,8.1,5,12.6,6.9l1.5-19.9l2.7,21.5
					c6.3,2.1,13.1,3.2,20.1,3.3l0-17.9L99.6,227.1L99.6,227.1z"/>
			</g>
			<path class="st44" d="M99.8,227l-2.7,1l-7.6,11.4l9.1,0l-5.7,2.9l15.8,27.7L99.8,227L99.8,227z"/>
			<path class="st53" d="M90.4,196.4c-0.3,2.9,0.3,9.5,3.9,9.2c0,0,5.1,14.9,15,16.6c8.5-1.6,13.7-15.1,14.1-16.4
				c1.2,0.4,4.5-5.1,1.9-9.5c-0.7-1.3-2.8-0.2-2.8-0.2l-0.2-3.7c-13.5,1.3-21.9-11.7-21.9-11.7c-5.1,5.6-6.4,8.8-6.9,15.7
				c0,0-1-0.6-2-0.6C91.3,195.7,90.9,196,90.4,196.4L90.4,196.4z"/>
			<path class="st4" d="M100.4,226.8l1.7-8.8c-5.1-5-7.7-12.5-7.7-12.5c-3.4,0.4-4.8-9.1-2.5-9.4c1.1-0.2,1.8,0.2,1.8,0.2
				c0.5-7.3,1.9-9.6,6.8-15.7c0,0,8.5,14.3,21.9,13l0.2,3.1c0.6-0.6,1.8-1.2,2.8,0.4c1.6,2.6-0.5,8.5-2.4,8.8
				c-0.3,0.9-2.4,7.6-6.9,12.2l1.8,8.5c5,1.6,9.9,2.9,14.8,4.2c-2.5-15.1-3.9-31.5-6.9-45.5c-2.8-13.4-18.4-17.2-27.3-11.2
				c0,0-7.7,3.1-9.1,13.4c-1.4,10.3-0.9,11.3-0.9,11.3l-2.5,31.7C90.7,229.4,96,228.4,100.4,226.8L100.4,226.8z"/>
			<path class="st45" d="M133,264.1c-2.6-0.4-4.3-2.9-3.8-5.4c0.4-2.6,2.9-4.3,5.4-3.8c2.6,0.4,4.3,2.9,3.8,5.4
				C138,262.8,135.5,264.5,133,264.1z"/>
			<path class="st46" d="M133,263.8c-2.4-0.4-4-2.7-3.6-5.1c0.4-2.4,2.7-4,5.1-3.6c2.4,0.4,4,2.7,3.6,5.1
				C137.7,262.6,135.4,264.2,133,263.8z"/>
			<path class="st47" d="M133.4,261.9c-1.3-0.2-2.2-1.5-2-2.8c0.2-1.3,1.5-2.2,2.8-2c1.3,0.2,2.2,1.5,2,2.8
				C136,261.2,134.7,262.1,133.4,261.9L133.4,261.9z"/>
			<path class="st45" d="M133.6,257.3l1.1,0.2l0.6-3.4l-1.1-0.2L133.6,257.3L133.6,257.3z"/>
			<path class="st48" d="M97.6,265l2-0.4c0.9-0.2,1.6-0.7,2-1.4c0.5-0.7,0.6-1.5,0.5-2.4l-2.4-12c-0.9-4.5-4.4-6.8-8.5-7.3
				c-1.5-0.2-3.2-0.1-4.7,0.2c-1.6,0.3-3.1,0.9-4.4,1.6c-3.5,2-5.9,5.5-5,10l2.4,12c0.2,0.9,0.7,1.6,1.4,2l0,0
				c0.7,0.5,1.5,0.6,2.4,0.5l2-0.4l-0.2-0.8l-2,0.4c-0.6,0.1-1.3,0-1.7-0.4l0,0c-0.5-0.3-0.9-0.9-1-1.5l-2.4-12
				c-0.8-4.1,1.4-7.3,4.6-9.1c1.3-0.7,2.7-1.2,4.2-1.5c1.5-0.3,3-0.4,4.5-0.2c3.7,0.5,6.9,2.6,7.7,6.7l2.4,12c0.1,0.6,0,1.3-0.4,1.7
				c-0.3,0.5-0.9,0.9-1.5,1l-2,0.4L97.6,265L97.6,265z"/>
			<path class="st49" d="M100.3,250.7l-0.4-1.8c-0.9-4.7-4.6-7-8.7-7.6c-1.6-0.2-3.2-0.1-4.8,0.2c-1.6,0.3-3.2,0.9-4.5,1.7
				c-3.6,2.1-6.1,5.6-5.1,10.3l0.4,1.8l1.4-0.3l-0.4-1.8c-0.8-4,1.3-7,4.5-8.8c1.2-0.7,2.7-1.2,4.1-1.5c1.5-0.3,3-0.4,4.4-0.2
				c3.6,0.5,6.7,2.5,7.5,6.4L99,251L100.3,250.7L100.3,250.7z"/>
			<g>
				<path class="st3" d="M83.6,268l1.1-0.2c0.3,0.3,0.7,0.5,1.1,0.4c0.6-0.1,1.1-0.8,0.9-1.4c-0.1-0.6-0.8-1.1-1.4-0.9
					c-0.4,0.1-0.8,0.4-0.9,0.8l-1.1,0.2L83.6,268z"/>
				<path class="st3" d="M98.4,265l-1.1,0.2c-0.1,0.4-0.5,0.7-0.9,0.8c-0.6,0.1-1.3-0.3-1.4-0.9c-0.1-0.6,0.3-1.3,0.9-1.4
					c0.4-0.1,0.8,0.1,1.1,0.4l1.1-0.2L98.4,265L98.4,265z"/>
			</g>
			<path class="st4" d="M87.1,241.4l-0.4-2.1l-0.8,0.2l-0.8,0.2l0.4,2.1c0.3-0.1,0.6-0.2,0.9-0.2C86.6,241.5,86.9,241.4,87.1,241.4z
				"/>
			<g>
				<path class="st46" d="M85.3,266.8c0.2,0,0.3-0.2,0.3-0.4c0-0.2-0.2-0.3-0.4-0.3c-0.2,0-0.3,0.2-0.3,0.4
					C85,266.7,85.1,266.9,85.3,266.8L85.3,266.8z"/>
				<path class="st46" d="M96,264.7c0.2,0,0.3-0.2,0.3-0.4c0-0.2-0.2-0.3-0.4-0.3c-0.2,0-0.3,0.2-0.3,0.4
					C95.6,264.6,95.8,264.7,96,264.7z"/>
			</g>
			<path class="st45" d="M133.2,261.9c-1.3-0.2-2.1-1.4-1.9-2.7c0.2-1.3,1.4-2.1,2.7-1.9c1.3,0.2,2.1,1.4,1.9,2.7
				C135.7,261.2,134.5,262.1,133.2,261.9z"/>
			<g>
				<path class="st49" d="M97.1,228.1c0,0-12.8,0.1-10.6,11.3l-1.2,0.2C82.9,227,97,226.9,97.1,226.9L97.1,228.1L97.1,228.1z"/>
				<path class="st49" d="M122.5,227c2.1,0.1,6.1,0.6,9.2,4.4c3,3.7,5.2,10.4,3.6,22.8l-1.2-0.2c1.5-12-0.4-18.5-3.3-21.9
					c-2.8-3.4-6.4-3.9-8.3-3.9L122.5,227L122.5,227z"/>
			</g>
		</g>
		<g>
			<path class="st54" d="M178.2,216.1c7,0,14.2,0,21.2,0l0.1,1.5l-10.4,15.9l-11.1-16L178.2,216.1L178.2,216.1L178.2,216.1z"/>
			<path class="st51" d="M178.3,212.1l-0.2,9l-15,8.3v30.5h25.3h25.3v-30.5l-14-8.8l-0.7-9L178.3,212.1L178.3,212.1L178.3,212.1z"/>
			<path class="st53" d="M171.4,186c0,0-0.8-1.9-3.1-0.9c-2.3,0.9,0.1,10.4,1,11.7c0.9,1.3,2.3,0.5,2.9,0.5
				c0.7,5.6,0.8,9.5,3.1,11.9c2.1,2.2,6.9,6.8,9.5,8.4c1.8,0.4,3.1,0.6,4.3,0.7c1.2-0.1,2.5-0.3,4.3-0.7c2.6-1.6,7.4-6.2,9.5-8.4
				c2.2-2.3,2.3-6.3,3.1-11.9c0.6,0.1,1.9,0.9,2.9-0.5c0.9-1.3,3.3-10.8,1-11.7c-2.3-0.9-3.1,0.9-3.1,0.9s2.3-7.4-1.8-14.8
				c-2.8-5.1-9.2-7.6-15.6-7.8c-6.5,0.2-12.9,2.8-15.6,7.8C169,178.6,171.4,186,171.4,186L171.4,186L171.4,186z"/>
			<path class="st55" d="M170.7,223.7l3.6-1.4l2.9-2.6l10.3,7.9h2.6l10.3-7.9l6.5,4.1l11.3,19.4l-9,49c-6.5,1.8-13.3,2.8-20.4,2.8
				c-5.7,0-11.4-0.7-16.8-1.9l-16-48.5L170.7,223.7L170.7,223.7z"/>
			<g>
				<path class="st48" d="M203.5,221.3l-4.2-5.1l-9.3,11.4l8,9L203.5,221.3z"/>
				<path class="st48" d="M174,221.2l4.2-5.1l9.4,11.4l-8.3,8.9L174,221.2z"/>
			</g>
			<path class="st2" d="M174,221.2l-27.4,9c-1.1,0.4-1.9,1.3-2,2.5l-8.1,41.3c5.5,5.1,11.6,9.5,18.3,13l4-13.2
				c0.1-0.2,0.2-0.3,0.4-0.2c0.2,0,0.3,0.2,0.3,0.3l0.6,15.5c8.9,3.6,18.5,5.6,28.7,5.6v-5.1L174,221.2L174,221.2z"/>
			<g>
				<path class="st44" d="M174,221.2l-3.1,0.9l-8.3,14.3l10.5,0.4l-6.5,3.7l22.1,49.3L174,221.2L174,221.2z"/>
				<path class="st44" d="M203.5,221.3l27.4,8.9c1.1,0.4,1.9,1.3,2,2.5l8.1,41.3c-5.5,5.1-11.6,9.5-18.3,13l-4-13.2
					c0-0.2-0.2-0.3-0.4-0.2c-0.2,0-0.3,0.2-0.3,0.3l-0.6,15.5c-8.9,3.6-18.5,5.6-28.7,5.6l0,0v-5.1L203.5,221.3L203.5,221.3z"/>
			</g>
			<path class="st2" d="M203.5,221.3l1.8,0.6l9.7,14.8l-10.5,0.4l6.5,3.7l-22.1,49.2L203.5,221.3L203.5,221.3L203.5,221.3
				L203.5,221.3z"/>
			<path class="st56" d="M191.9,289.5c-0.9,0-1.7,0.7-1.7,1.7c0,0.9,0.7,1.7,1.7,1.7s1.7-0.7,1.7-1.7
				C193.6,290.2,192.8,289.5,191.9,289.5z"/>
			<path class="st4" d="M204.2,188.2l1.6-0.1l0.6-1.9l1.5-1.5c1-7.7,1.3-19.6-6.2-19.2c0,0-0.6-8.7-14.2-6.9
				c-13.5,1.7-19.6,10.6-18.9,17.9c0.7,7.4,0.5,8.2,0.5,8.2l1.5,1.5l0.2,2.2l1.3-0.1c0,0,0.4-2.8,0.8-4.1c0.5-1.2,0.3-3.7,0.3-3.7
				s16,1,20.3-4.5c2.7-3.5,8.8-9.4,9.1-1.1c0.1,2.4-0.8,6.1,0.9,8.8C205.1,186.3,204.2,188.2,204.2,188.2L204.2,188.2L204.2,188.2z"
				/>
			<path class="st46" d="M188.8,289.9l4.4-20.1l-3-39.6l1.6-0.7l-1.7-2h-2.6l-1.8,1.9l1.7,0.7l-2.9,40L188.8,289.9L188.8,289.9
				L188.8,289.9z"/>
			<path class="st2" d="M191.7,289.5c-0.8,0-1.5,0.7-1.5,1.5s0.6,1.5,1.5,1.5c0.8,0,1.5-0.7,1.5-1.5
				C193.3,290.2,192.6,289.5,191.7,289.5z"/>
			<path class="st45" d="M215.6,264c-3-0.6-5-3.4-4.4-6.4c0.6-3,3.3-5.1,6.3-4.5c3,0.6,5,3.4,4.4,6.4
				C221.4,262.6,218.6,264.6,215.6,264L215.6,264L215.6,264z"/>
			<path class="st46" d="M215.7,263.7c-2.8-0.5-4.6-3.2-4.2-6c0.5-2.8,3.1-4.7,5.9-4.2c2.8,0.5,4.6,3.2,4.2,6
				C221.2,262.3,218.5,264.2,215.7,263.7L215.7,263.7z"/>
			<path class="st47" d="M216.1,261.5c-1.6-0.3-2.6-1.8-2.3-3.3c0.3-1.6,1.8-2.6,3.2-2.3c1.6,0.3,2.6,1.8,2.3,3.3
				C219.1,260.7,217.6,261.8,216.1,261.5L216.1,261.5z"/>
			<path class="st45" d="M216.4,256.1l1.2,0.2l0.6-3.9l-1.2-0.2L216.4,256.1z"/>
			<path class="st48" d="M174.6,265.2l2.3-0.5c1-0.2,1.9-0.7,2.3-1.6c0.6-0.7,0.7-1.8,0.6-2.8l-2.8-14c-1-5.3-5.1-8-9.8-8.6
				c-1.8-0.2-3.7-0.2-5.5,0.2c-1.9,0.4-3.6,1-5.2,1.9c-4.1,2.3-6.9,6.5-5.8,11.7l2.8,14c0.2,1,0.7,1.9,1.6,2.3l0,0
				c0.7,0.6,1.8,0.7,2.8,0.6l2.3-0.5l-0.2-0.9l-2.3,0.5c-0.7,0.2-1.5,0-2-0.4l0,0c-0.6-0.4-1-1-1.1-1.8l-2.8-14
				c-0.9-4.8,1.6-8.5,5.3-10.7c1.5-0.8,3.1-1.5,4.9-1.8c1.8-0.4,3.5-0.5,5.2-0.2c4.3,0.6,8.1,3,9,7.8l2.8,14c0.2,0.7,0,1.5-0.4,2.1
				c-0.4,0.6-1,1-1.8,1.1l-2.3,0.5L174.6,265.2L174.6,265.2L174.6,265.2L174.6,265.2z"/>
			<path class="st49" d="M177.8,248.4l-0.5-2.2c-1.1-5.4-5.3-8.2-10.1-8.9c-1.9-0.2-3.7-0.2-5.6,0.2c-1.9,0.4-3.6,1-5.3,2
				c-4.2,2.4-7,6.6-5.9,12.1l0.5,2.2l1.6-0.3l-0.5-2.2c-0.9-4.7,1.6-8.2,5.2-10.3c1.5-0.8,3.1-1.4,4.8-1.8c1.7-0.4,3.4-0.4,5.1-0.2
				c4.2,0.6,7.8,2.9,8.7,7.6l0.5,2.2L177.8,248.4L177.8,248.4z"/>
			<g>
				<path class="st3" d="M158.4,268.6l1.3-0.3c0.3,0.4,0.8,0.6,1.3,0.5c0.7-0.2,1.2-0.8,1.1-1.6c-0.2-0.7-0.8-1.2-1.6-1.1
					c-0.5,0.1-0.8,0.5-1,0.9l-1.3,0.3L158.4,268.6L158.4,268.6z"/>
				<path class="st3" d="M175.5,265.2l-1.3,0.3c-0.2,0.5-0.6,0.8-1,0.9c-0.7,0.2-1.5-0.4-1.6-1.1c-0.2-0.7,0.4-1.5,1.1-1.6
					c0.5-0.1,1,0.1,1.3,0.5l1.3-0.3L175.5,265.2z"/>
			</g>
			<path class="st4" d="M162.5,237.5L162,235l-0.9,0.2l-0.9,0.2l0.5,2.4c0.4-0.1,0.7-0.2,1.1-0.3
				C161.9,237.5,162.2,237.5,162.5,237.5z"/>
			<g>
				<path class="st46" d="M160.4,267.3c0.2,0,0.4-0.3,0.4-0.5s-0.3-0.4-0.5-0.4s-0.4,0.3-0.4,0.5C160,267.2,160.2,267.3,160.4,267.3
					L160.4,267.3z"/>
				<path class="st46" d="M172.7,264.8c0.2,0,0.4-0.3,0.4-0.5s-0.3-0.4-0.5-0.4c-0.2,0-0.4,0.3-0.4,0.5
					C172.4,264.7,172.6,264.9,172.7,264.8z"/>
			</g>
			<path class="st45" d="M216,261.4c-1.5-0.3-2.4-1.7-2.2-3.2c0.3-1.5,1.7-2.4,3.1-2.2c1.5,0.3,2.4,1.7,2.2,3.2
				C218.8,260.8,217.4,261.7,216,261.4L216,261.4z"/>
			<g>
				<path class="st49" d="M174,221.9c0,0-14.8,0.1-12.3,13.2l-1.4,0.3c-2.8-14.7,13.6-14.9,13.7-14.9V221.9z"/>
				<path class="st49" d="M203.5,220.5c2.4,0.1,7,0.7,10.6,5.1c3.5,4.3,6,12.3,4.2,26.8l-1.4-0.2c1.8-14-0.6-21.6-3.8-25.7
					c-3.2-3.9-7.4-4.6-9.6-4.6V220.5L203.5,220.5z"/>
			</g>
		</g>
	</g>
</g>
</svg>
